<svg width="311" height="311" viewBox="0 0 311 311" fill="none" xmlns="http://www.w3.org/2000/svg">
<circle cx="155.5" cy="155.5" r="155.5" fill="#6D2EBF"/>
<path d="M135.887 127.5C121.487 133.5 117.887 145.333 117.887 150.5C117.887 168.5 144.387 170.5 138.887 175.5C133.387 180.5 117.887 175.5 104.887 175.5C91.8868 175.5 101.887 190.5 115.887 192.5C129.887 194.5 143.387 181 170.887 184.5C198.387 188 200.887 180 204.887 175.5C208.887 171 200.387 171 190.887 175.5C183.287 179.1 170.72 177 165.387 175.5C175.887 174 202.887 150.5 187.387 136.5C171.887 122.5 153.887 120 135.887 127.5Z" fill="#2E2E29"/>
<path d="M110.886 135C111.286 125.4 104.886 119 97.8864 119C84.0889 119 75.5864 122.2 66.3864 135C54.8864 151 44.8869 177 47.3868 186C51.2211 199.804 52.3864 180.5 78.3864 166.5C104.386 152.5 110.386 147 110.886 135Z" fill="#2E2E29"/>
<path d="M199.405 135C199.005 125.4 205.405 119 212.405 119C226.202 119 234.705 122.2 243.905 135C255.405 151 265.404 177 262.904 186C259.07 199.804 257.905 180.5 231.905 166.5C205.905 152.5 199.905 147 199.405 135Z" fill="#2E2E29"/>
</svg>
