<svg width="267" height="171" viewBox="0 0 267 171" fill="none" xmlns="http://www.w3.org/2000/svg">
<path fill-rule="evenodd" clip-rule="evenodd" d="M87.7899 136.984C89.4731 136.995 91.2093 137 92.9998 137C119.316 137 134.79 143.665 149.049 149.807C153.717 151.817 158.254 153.772 163 155.418C176.257 160.018 191.135 162.211 215 156.5C251.541 147.755 247.114 135.303 241.933 120.729C238.819 111.971 235.432 102.447 240.5 92.5C247.124 79.4978 249.775 63.2458 246.506 49C243.112 34.211 233.336 21.5842 215 17C190.162 10.7905 177.7 17.4336 163 25.2702C156.394 28.7918 149.336 32.5545 140.5 35.5C126.436 40.188 107.745 34.1613 90.8566 28.7158C73.5212 23.1262 58.0845 18.1488 51.4997 26C41.0997 38.4 48.833 55.5 53.9997 62.5C57.3373 70.4949 57.6253 75.1504 56 80.2329C55.0933 83.0682 53.5913 86.0363 51.691 89.7912C49.5415 94.0387 46.8826 99.2928 43.9998 106.5C34.3034 130.741 34.009 136.648 87.7899 136.984Z" fill="#F7F5F5"/>
<circle cx="133" cy="10" r="10" fill="#F7F5F5"/>
<circle cx="16" cy="60" r="16" fill="#F7F5F5"/>
<circle cx="32" cy="89" r="6" fill="#F7F5F5"/>
<circle cx="53.5" cy="153.5" r="11.5" fill="#F7F5F5"/>
<circle cx="261" cy="92" r="6" fill="#F7F5F5"/>
</svg>
