<svg width="649" height="479" viewBox="0 0 649 479" fill="none" xmlns="http://www.w3.org/2000/svg">
<g clip-path="url(#clip0)">
<path d="M240.554 295.132L106.205 323.463C102.323 324.277 98.2761 323.517 94.9529 321.35C91.6297 319.183 89.3014 315.786 88.4788 311.903L65.4249 202.482C64.6111 198.598 65.3705 194.55 67.5367 191.225C69.7028 187.9 73.0988 185.571 76.9794 184.748L211.328 156.418C215.21 155.603 219.257 156.363 222.58 158.53C225.904 160.697 228.232 164.095 229.054 167.977L252.108 277.398C252.922 281.282 252.163 285.331 249.997 288.656C247.83 291.98 244.434 294.309 240.554 295.132ZM77.3425 186.471C73.9184 187.197 70.922 189.253 69.0107 192.186C67.0994 195.12 66.4292 198.692 67.1473 202.119L90.2013 311.54C90.927 314.966 92.9814 317.964 95.9136 319.876C98.8459 321.788 102.417 322.458 105.842 321.74L240.191 293.409C243.615 292.683 246.611 290.628 248.523 287.694C250.434 284.761 251.104 281.189 250.386 277.761L227.332 168.34C226.606 164.915 224.552 161.917 221.62 160.005C218.687 158.093 215.117 157.422 211.691 158.141L77.3425 186.471Z" fill="#2E2E29"/>
<path d="M202.981 192.497L135.177 206.795C134.583 206.933 133.96 206.84 133.432 206.535C132.905 206.231 132.512 205.737 132.335 205.154C132.253 204.85 132.235 204.533 132.28 204.222C132.325 203.91 132.434 203.611 132.598 203.343C132.763 203.075 132.98 202.843 133.237 202.662C133.495 202.481 133.786 202.354 134.094 202.289L203.114 187.734C205.809 189.254 204.957 192.08 202.98 192.497L202.981 192.497Z" fill="#CCCCCC"/>
<path d="M205.488 204.395L137.684 218.693C137.09 218.831 136.467 218.738 135.939 218.434C135.412 218.129 135.019 217.636 134.841 217.053C134.76 216.749 134.742 216.432 134.787 216.12C134.832 215.809 134.94 215.51 135.105 215.242C135.27 214.974 135.487 214.742 135.744 214.561C136.001 214.379 136.293 214.252 136.6 214.188L205.621 199.633C208.316 201.152 207.464 203.978 205.487 204.395L205.488 204.395Z" fill="#CCCCCC"/>
<path d="M124.453 228.559L103.76 232.922C103.084 233.064 102.38 232.932 101.801 232.555C101.223 232.178 100.818 231.586 100.675 230.91L95.5274 206.48C95.3857 205.804 95.5179 205.099 95.8949 204.521C96.272 203.942 96.8631 203.537 97.5386 203.393L118.232 199.03C118.908 198.888 119.612 199.021 120.19 199.398C120.769 199.775 121.174 200.366 121.317 201.042L126.464 225.472C126.606 226.148 126.474 226.853 126.097 227.432C125.72 228.01 125.129 228.416 124.453 228.559V228.559Z" fill="#CCCCCC"/>
<path d="M210.423 228.799L106.942 250.62C106.349 250.758 105.725 250.665 105.197 250.361C104.67 250.056 104.277 249.563 104.1 248.98C104.018 248.676 104 248.359 104.045 248.047C104.091 247.736 104.199 247.437 104.363 247.169C104.528 246.901 104.745 246.669 105.003 246.488C105.26 246.307 105.551 246.18 105.859 246.115L210.557 224.036C213.252 225.556 212.4 228.382 210.423 228.799Z" fill="#CCCCCC"/>
<path d="M212.931 240.701L109.449 262.522C108.856 262.66 108.233 262.567 107.705 262.263C107.177 261.958 106.785 261.465 106.607 260.882C106.526 260.578 106.507 260.261 106.553 259.949C106.598 259.638 106.706 259.339 106.871 259.071C107.036 258.803 107.253 258.571 107.51 258.39C107.767 258.208 108.059 258.081 108.366 258.017L213.065 235.938C215.76 237.458 214.908 240.284 212.931 240.701Z" fill="#CCCCCC"/>
<path d="M215.437 252.595L111.956 274.416C111.362 274.554 110.739 274.461 110.211 274.157C109.684 273.852 109.291 273.359 109.113 272.776C109.032 272.472 109.014 272.155 109.059 271.843C109.104 271.532 109.212 271.233 109.377 270.965C109.542 270.697 109.759 270.465 110.016 270.284C110.273 270.103 110.565 269.976 110.872 269.911L215.571 247.833C218.266 249.352 217.414 252.178 215.437 252.595H215.437Z" fill="#CCCCCC"/>
<path d="M217.944 264.496L114.463 286.318C113.87 286.455 113.246 286.363 112.718 286.058C112.191 285.754 111.798 285.26 111.621 284.677C111.539 284.373 111.521 284.056 111.566 283.744C111.612 283.433 111.72 283.134 111.884 282.866C112.049 282.598 112.266 282.366 112.524 282.185C112.781 282.004 113.072 281.877 113.38 281.812L218.078 259.734C220.773 261.253 219.921 264.079 217.944 264.496Z" fill="#CCCCCC"/>
<path d="M220.45 276.391L116.969 298.213C116.376 298.35 115.752 298.258 115.225 297.953C114.697 297.649 114.305 297.155 114.127 296.572C114.046 296.268 114.027 295.951 114.073 295.639C114.118 295.328 114.226 295.029 114.391 294.761C114.555 294.493 114.773 294.261 115.03 294.08C115.287 293.899 115.578 293.772 115.886 293.707L220.584 271.629C223.279 273.148 222.428 275.974 220.45 276.391Z" fill="#CCCCCC"/>
<path d="M236.957 221.916C236.722 222.343 236.521 222.788 236.355 223.246L193.992 233.763L186.622 226.136L173.662 235.758L185.397 250.53C186.345 251.723 187.655 252.577 189.129 252.962C190.603 253.348 192.162 253.244 193.573 252.668L239.541 233.875C241.052 234.988 242.866 235.614 244.741 235.67C246.617 235.727 248.465 235.21 250.039 234.19C251.614 233.17 252.841 231.695 253.557 229.96C254.274 228.225 254.445 226.313 254.048 224.479C253.652 222.644 252.707 220.974 251.338 219.69C249.97 218.406 248.243 217.569 246.387 217.291C244.532 217.013 242.636 217.306 240.951 218.133C239.267 218.959 237.873 220.279 236.957 221.916L236.957 221.916Z" fill="#FFB8B8"/>
<path d="M92.3541 315.508C93.6748 315.1 94.89 314.407 95.9142 313.479C96.9383 312.55 97.7464 311.408 98.2816 310.133C98.8169 308.858 99.0661 307.481 99.0119 306.099C98.9577 304.717 98.6013 303.364 97.9678 302.135L127.121 221.069L106.875 217.479L84.5845 298.294C82.5911 299.495 81.1076 301.387 80.4149 303.609C79.7223 305.832 79.8687 308.232 80.8264 310.354C81.7841 312.475 83.4866 314.172 85.6112 315.122C87.7358 316.072 90.135 316.21 92.3541 315.508Z" fill="#FFB8B8"/>
<path d="M123.419 235.459L103.429 227.784C102.86 227.565 102.345 227.227 101.919 226.791C101.493 226.356 101.165 225.834 100.959 225.26C100.753 224.687 100.672 224.075 100.723 223.468C100.775 222.861 100.956 222.272 101.255 221.741L111.742 203.139C112.876 200.235 115.115 197.9 117.967 196.644C120.82 195.389 124.053 195.316 126.959 196.441C129.865 197.567 132.207 199.799 133.471 202.649C134.734 205.499 134.817 208.734 133.701 211.645L129.076 232.423C128.943 233.017 128.684 233.577 128.316 234.062C127.947 234.548 127.479 234.948 126.942 235.237C126.405 235.525 125.813 235.694 125.205 235.732C124.597 235.771 123.988 235.677 123.419 235.459V235.459Z" fill="#6D2EBF"/>
<path d="M168.539 467.707H179.329L184.462 426.07L168.537 426.07L168.539 467.707Z" fill="#FFB8B8"/>
<path d="M165.786 464.183L187.036 464.182H187.037C188.815 464.182 190.576 464.533 192.219 465.214C193.862 465.894 195.355 466.892 196.613 468.15C197.87 469.408 198.868 470.902 199.548 472.546C200.229 474.189 200.579 475.951 200.579 477.73V478.17L165.787 478.172L165.786 464.183Z" fill="#2E2E29"/>
<path d="M107.81 467.707H118.599L123.733 426.07L107.808 426.07L107.81 467.707Z" fill="#FFB8B8"/>
<path d="M105.057 464.183L126.307 464.182H126.308C128.086 464.182 129.847 464.533 131.49 465.214C133.133 465.894 134.626 466.892 135.884 468.15C137.141 469.408 138.139 470.902 138.819 472.546C139.5 474.189 139.85 475.951 139.85 477.73V478.17L105.058 478.172L105.057 464.183Z" fill="#2E2E29"/>
<path d="M119.122 450.949H105.467C104.931 450.949 104.4 450.84 103.908 450.629C103.415 450.418 102.97 450.109 102.6 449.721C102.231 449.333 101.943 448.874 101.756 448.371C101.569 447.869 101.485 447.334 101.511 446.798L107.997 307.385L108.405 307.374L174.344 305.654L187.247 445.147C187.297 445.67 187.242 446.198 187.086 446.699C186.93 447.201 186.676 447.667 186.338 448.069C186.001 448.471 185.587 448.803 185.12 449.043C184.653 449.284 184.144 449.43 183.62 449.472L168.283 450.699C167.319 450.775 166.361 450.497 165.588 449.916C164.816 449.335 164.282 448.492 164.087 447.545L144.469 348.243C144.415 347.942 144.255 347.669 144.018 347.476C143.781 347.282 143.482 347.18 143.176 347.188H143.17C142.863 347.181 142.564 347.285 142.327 347.48C142.09 347.676 141.931 347.951 141.88 348.254L123.008 447.752C122.829 448.652 122.344 449.462 121.636 450.045C120.927 450.628 120.039 450.947 119.122 450.949Z" fill="#2E2E29"/>
<path d="M144.135 183.045C156.073 183.045 165.752 173.363 165.752 161.419C165.752 149.475 156.073 139.793 144.135 139.793C132.196 139.793 122.518 149.475 122.518 161.419C122.518 173.363 132.196 183.045 144.135 183.045Z" fill="#FFB8B8"/>
<path d="M136.886 323.722C126.583 323.722 116 321.013 107.228 313.002C106.761 312.579 106.4 312.051 106.176 311.462C105.951 310.873 105.868 310.24 105.934 309.613C106.873 301.172 111.428 257.591 108.863 228.479C108.362 223.041 109.132 217.561 111.111 212.472C113.09 207.383 116.224 202.824 120.266 199.154C124.237 195.492 129.004 192.804 134.191 191.301C139.379 189.798 144.844 189.522 150.157 190.495H150.157C150.426 190.543 150.695 190.594 150.965 190.645C168.271 193.996 180.296 210.02 178.935 227.918C176.95 254.034 175.17 289.36 177.965 309.337C178.08 310.155 177.938 310.988 177.557 311.72C177.176 312.452 176.575 313.047 175.839 313.42C169.481 316.634 153.549 323.722 136.886 323.722Z" fill="#6D2EBF"/>
<path d="M165.094 237.015C164.587 236.677 164.158 236.234 163.838 235.716C163.517 235.198 163.312 234.616 163.237 234.011L160.604 212.888C159.768 209.884 160.156 206.671 161.685 203.953C163.213 201.235 165.756 199.235 168.756 198.39C171.757 197.545 174.969 197.925 177.69 199.447C180.411 200.968 182.418 203.507 183.271 206.506L191.945 226.019C192.193 226.576 192.318 227.18 192.311 227.789C192.304 228.399 192.166 228.999 191.906 229.551C191.647 230.102 191.271 230.591 190.806 230.984C190.34 231.377 189.795 231.665 189.208 231.828L168.58 237.571C167.993 237.735 167.378 237.77 166.776 237.674C166.175 237.578 165.601 237.353 165.094 237.015Z" fill="#6D2EBF"/>
<path d="M136.588 182.74C134.542 182.778 132.509 182.41 130.606 181.657C129.769 181.334 128.899 181.069 128.064 180.746C120.682 177.893 115.82 170.028 115.646 162.114C115.472 154.199 119.568 146.517 125.652 141.455C131.736 136.392 139.615 133.793 147.506 133.192C156.005 132.545 165.575 134.701 170.324 141.782C171.588 143.667 172.472 145.954 171.723 148.23C171.499 148.916 171.098 149.532 170.561 150.015C168.44 151.903 166.326 150.484 164.164 150.358C161.192 150.186 158.523 152.592 157.563 155.412C156.604 158.231 157.026 161.334 157.801 164.21C158.391 165.94 158.763 167.737 158.908 169.56C158.971 170.474 158.799 171.388 158.409 172.217C158.019 173.046 157.425 173.761 156.681 174.296C154.824 175.419 152.385 174.769 150.527 173.648C148.669 172.526 147.063 170.968 145.056 170.143C143.049 169.318 140.353 169.501 139.185 171.33C138.813 171.996 138.562 172.721 138.442 173.474C137.395 178.248 137.636 177.967 136.588 182.74V182.74Z" fill="#2E2E29"/>
<path d="M436.008 153.21H298.708C294.741 153.205 290.938 151.627 288.133 148.82C285.328 146.014 283.75 142.209 283.745 138.241V26.4154C283.75 22.4468 285.328 18.6421 288.133 15.8358C290.938 13.0296 294.741 11.4511 298.708 11.4467H436.008C439.975 11.4511 443.778 13.0296 446.583 15.8358C449.388 18.6421 450.966 22.4468 450.97 26.4154V138.241C450.966 142.209 449.388 146.014 446.583 148.82C443.778 151.627 439.975 153.205 436.008 153.21ZM298.708 13.2077C295.207 13.2116 291.852 14.6044 289.377 17.0805C286.902 19.5566 285.51 22.9137 285.506 26.4154V138.241C285.51 141.742 286.902 145.1 289.377 147.576C291.852 150.052 295.207 151.445 298.708 151.449H436.008C439.508 151.445 442.864 150.052 445.339 147.576C447.814 145.1 449.206 141.742 449.21 138.241V26.4154C449.206 22.9137 447.814 19.5566 445.339 17.0805C442.864 14.6044 439.508 13.2116 436.008 13.2077H298.708Z" fill="#2E2E29"/>
<path d="M420.402 45.0278H351.108C350.499 45.0401 349.908 44.8207 349.455 44.4139C349.001 44.007 348.719 43.4431 348.665 42.8361C348.649 42.5219 348.696 42.2076 348.804 41.9122C348.913 41.6169 349.08 41.3468 349.297 41.1184C349.513 40.89 349.774 40.7081 350.063 40.5838C350.352 40.4595 350.663 40.3954 350.977 40.3954H421.514C423.838 42.4382 422.422 45.0278 420.401 45.0278L420.402 45.0278Z" fill="#CCCCCC"/>
<path d="M420.402 57.1877H351.108C350.499 57.2 349.908 56.9806 349.455 56.5738C349.001 56.1669 348.719 55.603 348.665 54.996C348.649 54.6818 348.696 54.3675 348.804 54.0721C348.913 53.7768 349.08 53.5067 349.297 53.2783C349.513 53.05 349.774 52.868 350.063 52.7437C350.352 52.6194 350.663 52.5553 350.977 52.5553H421.514C423.838 54.5981 422.422 57.1877 420.401 57.1877L420.402 57.1877Z" fill="#CCCCCC"/>
<path d="M336.129 64.1111H314.981C314.29 64.1104 313.628 63.8357 313.14 63.3472C312.652 62.8588 312.377 62.1965 312.376 61.5057V36.5387C312.377 35.8479 312.652 35.1856 313.14 34.6971C313.628 34.2087 314.29 33.9339 314.981 33.9332H336.129C336.819 33.9342 337.481 34.209 337.969 34.6974C338.457 35.1858 338.732 35.8479 338.733 36.5387V61.5057C338.732 62.1965 338.458 62.8588 337.969 63.3472C337.481 63.8357 336.819 64.1104 336.129 64.1111Z" fill="#2E2E29"/>
<path d="M420.201 82.0851H314.445C313.837 82.0974 313.246 81.878 312.792 81.4712C312.339 81.0644 312.056 80.5005 312.003 79.8935C311.986 79.5793 312.033 79.2649 312.142 78.9696C312.25 78.6743 312.418 78.4042 312.634 78.1758C312.85 77.9474 313.111 77.7655 313.4 77.6412C313.689 77.5169 314 77.4528 314.315 77.4528H421.313C423.637 79.4956 422.221 82.0851 420.201 82.0851V82.0851Z" fill="#CCCCCC"/>
<path d="M420.201 94.2486H314.445C313.836 94.2609 313.246 94.0415 312.792 93.6347C312.339 93.2278 312.056 92.6639 312.003 92.0569C311.986 91.7427 312.033 91.4284 312.142 91.1331C312.25 90.8377 312.418 90.5677 312.634 90.3393C312.85 90.1109 313.111 89.9289 313.4 89.8046C313.689 89.6803 314 89.6162 314.315 89.6162H421.313C423.637 91.659 422.221 94.2486 420.201 94.2486V94.2486Z" fill="#CCCCCC"/>
<path d="M420.201 106.404H314.445C313.836 106.416 313.246 106.197 312.792 105.79C312.339 105.383 312.056 104.819 312.003 104.212C311.986 103.898 312.033 103.584 312.142 103.288C312.25 102.993 312.418 102.723 312.634 102.495C312.85 102.266 313.111 102.084 313.4 101.96C313.689 101.836 314 101.772 314.315 101.772H421.313C423.637 103.814 422.221 106.404 420.201 106.404V106.404Z" fill="#CCCCCC"/>
<path d="M420.201 118.567H314.445C313.836 118.579 313.246 118.36 312.792 117.953C312.339 117.546 312.056 116.982 312.003 116.375C311.986 116.061 312.033 115.746 312.142 115.451C312.25 115.156 312.418 114.886 312.634 114.657C312.85 114.429 313.111 114.247 313.4 114.123C313.689 113.998 314 113.934 314.315 113.934H421.313C423.637 115.977 422.221 118.567 420.201 118.567V118.567Z" fill="#CCCCCC"/>
<path d="M420.201 130.723H314.445C313.836 130.735 313.246 130.516 312.792 130.109C312.339 129.702 312.056 129.138 312.003 128.531C311.986 128.217 312.033 127.903 312.142 127.607C312.25 127.312 312.418 127.042 312.634 126.814C312.85 126.585 313.111 126.403 313.4 126.279C313.689 126.155 314 126.091 314.315 126.091H421.313C423.637 128.133 422.221 130.723 420.201 130.723Z" fill="#CCCCCC"/>
<path d="M406.084 0C407.25 0.00133535 408.369 0.465605 409.194 1.29096C410.019 2.11631 410.483 3.23535 410.484 4.40257V18.4908C410.483 19.658 410.019 20.7771 409.194 21.6024C408.369 22.4278 407.25 22.892 406.084 22.8934H328.632C327.465 22.892 326.347 22.4278 325.522 21.6024C324.697 20.7771 324.233 19.658 324.231 18.4908V4.40257C324.233 3.23535 324.697 2.11631 325.522 1.29096C326.347 0.465605 327.465 0.00133535 328.632 0" fill="#6D2EBF"/>
<path d="M634.038 291.45H496.737C492.77 291.446 488.967 289.867 486.162 287.061C483.357 284.255 481.779 280.45 481.775 276.482V164.656C481.779 160.688 483.357 156.883 486.162 154.077C488.967 151.27 492.77 149.692 496.737 149.688H634.038C638.005 149.692 641.808 151.27 644.613 154.077C647.418 156.883 648.995 160.688 649 164.656V276.482C648.995 280.45 647.418 284.255 644.613 287.061C641.808 289.867 638.005 291.446 634.038 291.45ZM496.737 151.449C493.237 151.452 489.881 152.845 487.406 155.321C484.931 157.797 483.539 161.155 483.535 164.656V276.482C483.539 279.983 484.931 283.34 487.406 285.817C489.881 288.293 493.237 289.685 496.737 289.689H634.038C637.538 289.685 640.893 288.293 643.368 285.817C645.843 283.34 647.236 279.983 647.24 276.482V164.656C647.236 161.155 645.843 157.797 643.368 155.321C640.893 152.845 637.538 151.452 634.038 151.449H496.737Z" fill="#2E2E29"/>
<path d="M618.432 183.269H549.138C548.529 183.281 547.938 183.062 547.484 182.655C547.031 182.248 546.749 181.684 546.695 181.077C546.678 180.763 546.725 180.448 546.834 180.153C546.942 179.858 547.11 179.588 547.326 179.359C547.543 179.131 547.803 178.949 548.092 178.825C548.381 178.7 548.692 178.636 549.007 178.636H619.544C621.867 180.679 620.451 183.269 618.431 183.269H618.432Z" fill="#2E2E29"/>
<path d="M618.432 195.429H549.138C548.529 195.441 547.938 195.221 547.484 194.815C547.031 194.408 546.749 193.844 546.695 193.237C546.678 192.923 546.725 192.608 546.834 192.313C546.942 192.018 547.11 191.748 547.326 191.519C547.543 191.291 547.803 191.109 548.092 190.985C548.381 190.86 548.692 190.796 549.007 190.796H619.544C621.867 192.839 620.451 195.429 618.431 195.429H618.432Z" fill="#2E2E29"/>
<path d="M534.158 202.352H513.01C512.32 202.351 511.658 202.077 511.17 201.588C510.681 201.1 510.407 200.437 510.406 199.747V174.78C510.407 174.089 510.681 173.426 511.17 172.938C511.658 172.45 512.32 172.175 513.01 172.174H534.158C534.849 172.175 535.51 172.45 535.999 172.938C536.487 173.427 536.762 174.089 536.762 174.78V199.747C536.762 200.437 536.487 201.1 535.999 201.588C535.511 202.077 534.849 202.351 534.158 202.352Z" fill="#CCCCCC"/>
<path d="M617.771 270.152H596.623C595.932 270.151 595.27 269.876 594.782 269.388C594.294 268.899 594.019 268.237 594.019 267.546V253.145C594.019 252.455 594.294 251.792 594.782 251.304C595.27 250.815 595.932 250.541 596.623 250.54H617.771C618.461 250.541 619.123 250.816 619.611 251.304C620.099 251.792 620.374 252.455 620.375 253.145V267.546C620.374 268.237 620.1 268.899 619.611 269.388C619.123 269.876 618.461 270.151 617.771 270.152Z" fill="#2E2E29"/>
<path d="M618.23 220.326H512.475C511.866 220.338 511.275 220.119 510.822 219.712C510.368 219.305 510.086 218.741 510.032 218.134C510.015 217.82 510.063 217.506 510.171 217.21C510.28 216.915 510.447 216.645 510.664 216.417C510.88 216.188 511.14 216.006 511.429 215.882C511.718 215.758 512.03 215.694 512.344 215.694H619.343C621.667 217.736 620.251 220.326 618.23 220.326V220.326Z" fill="#CCCCCC"/>
<path d="M618.23 232.489H512.475C511.866 232.502 511.275 232.282 510.822 231.875C510.368 231.469 510.086 230.905 510.032 230.298C510.015 229.983 510.063 229.669 510.171 229.374C510.28 229.078 510.447 228.808 510.664 228.58C510.88 228.352 511.14 228.17 511.429 228.045C511.718 227.921 512.03 227.857 512.344 227.857H619.343C621.667 229.9 620.251 232.489 618.23 232.489V232.489Z" fill="#CCCCCC"/>
<path d="M618.23 244.645H512.475C511.866 244.657 511.275 244.438 510.822 244.031C510.368 243.624 510.086 243.06 510.032 242.453C510.015 242.139 510.063 241.825 510.171 241.529C510.28 241.234 510.447 240.964 510.664 240.736C510.88 240.507 511.14 240.325 511.429 240.201C511.718 240.077 512.03 240.012 512.344 240.012H619.343C621.667 242.055 620.251 244.645 618.23 244.645V244.645Z" fill="#CCCCCC"/>
<path d="M562.782 256.807H512.475C511.866 256.82 511.275 256.6 510.822 256.193C510.368 255.787 510.086 255.223 510.032 254.616C510.015 254.302 510.063 253.987 510.171 253.692C510.28 253.397 510.447 253.126 510.664 252.898C510.88 252.67 511.14 252.488 511.429 252.363C511.718 252.239 512.03 252.175 512.344 252.175H563.895C566.218 254.218 564.802 256.807 562.782 256.807V256.807Z" fill="#CCCCCC"/>
<path d="M562.782 268.964H512.475C511.866 268.976 511.275 268.757 510.822 268.35C510.368 267.943 510.086 267.379 510.032 266.772C510.015 266.458 510.063 266.144 510.171 265.848C510.28 265.553 510.447 265.283 510.664 265.054C510.88 264.826 511.14 264.644 511.429 264.52C511.718 264.396 512.03 264.331 512.344 264.331H563.895C566.218 266.374 564.802 268.964 562.782 268.964Z" fill="#CCCCCC"/>
<path d="M604.113 161.134H526.662C525.495 161.133 524.376 160.669 523.551 159.843C522.726 159.018 522.262 157.899 522.261 156.732V142.643C522.262 141.476 522.726 140.357 523.551 139.532C524.376 138.706 525.495 138.242 526.662 138.241H604.113C605.28 138.242 606.398 138.706 607.223 139.532C608.048 140.357 608.513 141.476 608.514 142.643V156.732C608.513 157.899 608.048 159.018 607.223 159.843C606.398 160.669 605.28 161.133 604.113 161.134Z" fill="#6D2EBF"/>
<path d="M336.21 479H0.880132C0.646706 479 0.422841 478.907 0.257784 478.742C0.0927272 478.577 0 478.353 0 478.12C0 477.886 0.0927272 477.662 0.257784 477.497C0.422841 477.332 0.646706 477.239 0.880132 477.239H336.21C336.444 477.239 336.668 477.332 336.833 477.497C336.998 477.662 337.09 477.886 337.09 478.12C337.09 478.353 336.998 478.577 336.833 478.742C336.668 478.907 336.444 479 336.21 479Z" fill="#2E2E29"/>
<path d="M85.1649 26.2315C88.3083 26.2315 90.8566 23.6821 90.8566 20.5373C90.8566 17.3925 88.3083 14.8431 85.1649 14.8431C82.0214 14.8431 79.4731 17.3925 79.4731 20.5373C79.4731 23.6821 82.0214 26.2315 85.1649 26.2315Z" fill="#F2F2F2"/>
<path d="M85.1649 48.9254C88.3083 48.9254 90.8566 46.376 90.8566 43.2312C90.8566 40.0864 88.3083 37.537 85.1649 37.537C82.0214 37.537 79.4731 40.0864 79.4731 43.2312C79.4731 46.376 82.0214 48.9254 85.1649 48.9254Z" fill="#F2F2F2"/>
<path d="M85.1649 71.6191C88.3083 71.6191 90.8566 69.0697 90.8566 65.9249C90.8566 62.7801 88.3083 60.2307 85.1649 60.2307C82.0214 60.2307 79.4731 62.7801 79.4731 65.9249C79.4731 69.0697 82.0214 71.6191 85.1649 71.6191Z" fill="#F2F2F2"/>
<path d="M85.1649 94.313C88.3083 94.313 90.8566 91.7636 90.8566 88.6188C90.8566 85.4739 88.3083 82.9246 85.1649 82.9246C82.0214 82.9246 79.4731 85.4739 79.4731 88.6188C79.4731 91.7636 82.0214 94.313 85.1649 94.313Z" fill="#F2F2F2"/>
<path d="M108.929 26.2315C112.072 26.2315 114.62 23.6821 114.62 20.5373C114.62 17.3925 112.072 14.8431 108.929 14.8431C105.785 14.8431 103.237 17.3925 103.237 20.5373C103.237 23.6821 105.785 26.2315 108.929 26.2315Z" fill="#F2F2F2"/>
<path d="M108.929 48.9254C112.072 48.9254 114.62 46.376 114.62 43.2312C114.62 40.0864 112.072 37.537 108.929 37.537C105.785 37.537 103.237 40.0864 103.237 43.2312C103.237 46.376 105.785 48.9254 108.929 48.9254Z" fill="#F2F2F2"/>
<path d="M108.929 71.6191C112.072 71.6191 114.62 69.0697 114.62 65.9249C114.62 62.7801 112.072 60.2307 108.929 60.2307C105.785 60.2307 103.237 62.7801 103.237 65.9249C103.237 69.0697 105.785 71.6191 108.929 71.6191Z" fill="#F2F2F2"/>
<path d="M108.929 94.313C112.072 94.313 114.62 91.7636 114.62 88.6188C114.62 85.4739 112.072 82.9246 108.929 82.9246C105.785 82.9246 103.237 85.4739 103.237 88.6188C103.237 91.7636 105.785 94.313 108.929 94.313Z" fill="#F2F2F2"/>
<path d="M132.692 26.2315C135.835 26.2315 138.384 23.6821 138.384 20.5373C138.384 17.3925 135.835 14.8431 132.692 14.8431C129.549 14.8431 127 17.3925 127 20.5373C127 23.6821 129.549 26.2315 132.692 26.2315Z" fill="#F2F2F2"/>
<path d="M132.692 48.9254C135.835 48.9254 138.384 46.376 138.384 43.2312C138.384 40.0864 135.835 37.537 132.692 37.537C129.549 37.537 127 40.0864 127 43.2312C127 46.376 129.549 48.9254 132.692 48.9254Z" fill="#F2F2F2"/>
<path d="M132.692 71.6191C135.835 71.6191 138.384 69.0697 138.384 65.9249C138.384 62.7801 135.835 60.2307 132.692 60.2307C129.549 60.2307 127 62.7801 127 65.9249C127 69.0697 129.549 71.6191 132.692 71.6191Z" fill="#F2F2F2"/>
<path d="M132.692 94.313C135.835 94.313 138.384 91.7636 138.384 88.6188C138.384 85.4739 135.835 82.9246 132.692 82.9246C129.549 82.9246 127 85.4739 127 88.6188C127 91.7636 129.549 94.313 132.692 94.313Z" fill="#F2F2F2"/>
<path d="M156.455 26.2315C159.599 26.2315 162.147 23.6821 162.147 20.5373C162.147 17.3925 159.599 14.8431 156.455 14.8431C153.312 14.8431 150.764 17.3925 150.764 20.5373C150.764 23.6821 153.312 26.2315 156.455 26.2315Z" fill="#F2F2F2"/>
<path d="M156.455 48.9254C159.599 48.9254 162.147 46.376 162.147 43.2312C162.147 40.0864 159.599 37.537 156.455 37.537C153.312 37.537 150.764 40.0864 150.764 43.2312C150.764 46.376 153.312 48.9254 156.455 48.9254Z" fill="#F2F2F2"/>
<path d="M156.455 71.6191C159.599 71.6191 162.147 69.0697 162.147 65.9249C162.147 62.7801 159.599 60.2307 156.455 60.2307C153.312 60.2307 150.764 62.7801 150.764 65.9249C150.764 69.0697 153.312 71.6191 156.455 71.6191Z" fill="#F2F2F2"/>
<path d="M156.455 94.313C159.599 94.313 162.147 91.7636 162.147 88.6188C162.147 85.4739 159.599 82.9246 156.455 82.9246C153.312 82.9246 150.764 85.4739 150.764 88.6188C150.764 91.7636 153.312 94.313 156.455 94.313Z" fill="#F2F2F2"/>
<path d="M180.219 26.2315C183.362 26.2315 185.911 23.6821 185.911 20.5373C185.911 17.3925 183.362 14.8431 180.219 14.8431C177.076 14.8431 174.527 17.3925 174.527 20.5373C174.527 23.6821 177.076 26.2315 180.219 26.2315Z" fill="#F2F2F2"/>
<path d="M180.219 48.9254C183.362 48.9254 185.911 46.376 185.911 43.2312C185.911 40.0864 183.362 37.537 180.219 37.537C177.076 37.537 174.527 40.0864 174.527 43.2312C174.527 46.376 177.076 48.9254 180.219 48.9254Z" fill="#F2F2F2"/>
<path d="M180.219 71.6191C183.362 71.6191 185.911 69.0697 185.911 65.9249C185.911 62.7801 183.362 60.2307 180.219 60.2307C177.076 60.2307 174.527 62.7801 174.527 65.9249C174.527 69.0697 177.076 71.6191 180.219 71.6191Z" fill="#F2F2F2"/>
<path d="M180.219 94.313C183.362 94.313 185.911 91.7636 185.911 88.6188C185.911 85.4739 183.362 82.9246 180.219 82.9246C177.076 82.9246 174.527 85.4739 174.527 88.6188C174.527 91.7636 177.076 94.313 180.219 94.313Z" fill="#F2F2F2"/>
<path d="M203.983 26.2315C207.126 26.2315 209.674 23.6821 209.674 20.5373C209.674 17.3925 207.126 14.8431 203.983 14.8431C200.839 14.8431 198.291 17.3925 198.291 20.5373C198.291 23.6821 200.839 26.2315 203.983 26.2315Z" fill="#F2F2F2"/>
<path d="M203.983 48.9254C207.126 48.9254 209.674 46.376 209.674 43.2312C209.674 40.0864 207.126 37.537 203.983 37.537C200.839 37.537 198.291 40.0864 198.291 43.2312C198.291 46.376 200.839 48.9254 203.983 48.9254Z" fill="#F2F2F2"/>
<path d="M203.983 71.6191C207.126 71.6191 209.674 69.0697 209.674 65.9249C209.674 62.7801 207.126 60.2307 203.983 60.2307C200.839 60.2307 198.291 62.7801 198.291 65.9249C198.291 69.0697 200.839 71.6191 203.983 71.6191Z" fill="#F2F2F2"/>
<path d="M203.983 94.313C207.126 94.313 209.674 91.7636 209.674 88.6188C209.674 85.4739 207.126 82.9246 203.983 82.9246C200.839 82.9246 198.291 85.4739 198.291 88.6188C198.291 91.7636 200.839 94.313 203.983 94.313Z" fill="#F2F2F2"/>
<path d="M529.631 341.456C532.775 341.456 535.323 338.906 535.323 335.762C535.323 332.617 532.775 330.068 529.631 330.068C526.488 330.068 523.939 332.617 523.939 335.762C523.939 338.906 526.488 341.456 529.631 341.456Z" fill="#F2F2F2"/>
<path d="M529.631 364.15C532.775 364.15 535.323 361.6 535.323 358.455C535.323 355.311 532.775 352.761 529.631 352.761C526.488 352.761 523.939 355.311 523.939 358.455C523.939 361.6 526.488 364.15 529.631 364.15Z" fill="#F2F2F2"/>
<path d="M529.631 386.843C532.775 386.843 535.323 384.294 535.323 381.149C535.323 378.004 532.775 375.455 529.631 375.455C526.488 375.455 523.939 378.004 523.939 381.149C523.939 384.294 526.488 386.843 529.631 386.843Z" fill="#F2F2F2"/>
<path d="M553.395 341.456C556.538 341.456 559.087 338.906 559.087 335.762C559.087 332.617 556.538 330.068 553.395 330.068C550.251 330.068 547.703 332.617 547.703 335.762C547.703 338.906 550.251 341.456 553.395 341.456Z" fill="#F2F2F2"/>
<path d="M553.395 364.15C556.538 364.15 559.087 361.6 559.087 358.455C559.087 355.311 556.538 352.761 553.395 352.761C550.251 352.761 547.703 355.311 547.703 358.455C547.703 361.6 550.251 364.15 553.395 364.15Z" fill="#F2F2F2"/>
<path d="M553.395 386.843C556.538 386.843 559.087 384.294 559.087 381.149C559.087 378.004 556.538 375.455 553.395 375.455C550.251 375.455 547.703 378.004 547.703 381.149C547.703 384.294 550.251 386.843 553.395 386.843Z" fill="#F2F2F2"/>
<path d="M577.159 341.456C580.302 341.456 582.85 338.906 582.85 335.762C582.85 332.617 580.302 330.068 577.159 330.068C574.015 330.068 571.467 332.617 571.467 335.762C571.467 338.906 574.015 341.456 577.159 341.456Z" fill="#F2F2F2"/>
<path d="M577.159 364.15C580.302 364.15 582.85 361.6 582.85 358.455C582.85 355.311 580.302 352.761 577.159 352.761C574.015 352.761 571.467 355.311 571.467 358.455C571.467 361.6 574.015 364.15 577.159 364.15Z" fill="#F2F2F2"/>
<path d="M577.159 386.843C580.302 386.843 582.85 384.294 582.85 381.149C582.85 378.004 580.302 375.455 577.159 375.455C574.015 375.455 571.467 378.004 571.467 381.149C571.467 384.294 574.015 386.843 577.159 386.843Z" fill="#F2F2F2"/>
<path d="M600.922 341.456C604.065 341.456 606.614 338.906 606.614 335.762C606.614 332.617 604.065 330.068 600.922 330.068C597.779 330.068 595.23 332.617 595.23 335.762C595.23 338.906 597.779 341.456 600.922 341.456Z" fill="#F2F2F2"/>
<path d="M600.922 364.15C604.065 364.15 606.614 361.6 606.614 358.455C606.614 355.311 604.065 352.761 600.922 352.761C597.779 352.761 595.23 355.311 595.23 358.455C595.23 361.6 597.779 364.15 600.922 364.15Z" fill="#F2F2F2"/>
<path d="M600.922 386.843C604.065 386.843 606.614 384.294 606.614 381.149C606.614 378.004 604.065 375.455 600.922 375.455C597.779 375.455 595.23 378.004 595.23 381.149C595.23 384.294 597.779 386.843 600.922 386.843Z" fill="#F2F2F2"/>
</g>
<defs>
<clipPath id="clip0">
<rect width="649" height="479" fill="white"/>
</clipPath>
</defs>
</svg>
