<svg width="816" height="576" viewBox="0 0 816 576" fill="none" xmlns="http://www.w3.org/2000/svg">
<g filter="url(#filter0_d)">
<path d="M802.159 400.97C802.159 433.225 628.674 552 412.01 552C195.346 552 22.0679 416.447 22.0679 384.193C22.0679 351.938 195.346 435.18 412.01 435.18C628.674 435.18 802.159 368.687 802.159 400.97Z" fill="#3F3D56"/>
<path d="M804.311 388.096C804.311 388.525 804.311 388.954 804.311 389.39C803.835 402.795 796.54 416.127 783.229 425.541C769.108 435.515 750.172 440.763 730.731 444.114C727.691 444.638 724.636 445.11 721.589 445.568C720.034 445.786 718.485 446.005 716.944 446.208C673.665 452.024 629.477 453.136 585.495 454.204C539.489 455.368 493.44 456.516 447.384 457.112L438.249 457.221C368.369 457.992 298.518 457.345 228.894 453.288C207.287 452.038 185.466 450.381 164.043 447.589C160.989 447.206 157.944 446.787 154.909 446.332C126.497 442.166 98.9299 435.776 73.8135 425.403C67.8845 422.981 62.0851 420.239 56.4395 417.189C40.6637 408.618 27.3597 397.779 20.7752 384.476C16.9449 376.677 15.3679 367.921 16.2292 359.237C16.5109 356.08 17.0407 352.951 17.8132 349.881C19.7936 342.285 22.8139 335.014 26.7843 328.283C37.0411 310.532 52.4476 294.619 65.7303 277.95C94.0856 242.424 112.554 197.536 86.3859 161.123C78.878 150.662 68.0246 141.496 61.9089 130.555C58.6372 124.645 56.5961 118.106 55.9139 111.349C55.5819 108.243 55.4561 105.117 55.5374 101.994C55.8276 94.6992 56.7186 87.4428 58.2011 80.3017C62.4629 57.97 70.4254 33.8937 95.0161 19.9655C111.801 10.4571 133.195 7.50571 154.888 8.06546C157.932 8.13815 160.977 8.28354 164.022 8.50162C172.34 9.06137 180.608 10.0936 188.591 11.4094C237.915 19.4712 283.438 36.3144 329.395 51.5221C364.385 63.095 400.624 73.9192 438.228 79.0804C441.268 79.4948 444.308 79.8801 447.362 80.2145C456.177 81.2031 465.07 81.8574 474.034 82.1263C518.648 83.4348 570.699 73.5484 600.326 47.8728C628.944 23.055 682.615 21.0559 721.568 35.8783L722.15 36.1036C725.081 37.2473 727.923 38.4783 730.674 39.7965C759.377 53.6084 778.605 77.2631 781.319 102.015C781.658 105.09 781.739 108.188 781.56 111.277C781.564 111.308 781.564 111.34 781.56 111.371C779.699 141.823 755.378 167.397 730.681 193.014C727.627 196.176 724.565 199.338 721.539 202.523C713.527 210.94 705.764 219.424 699.03 228.154C695.955 232.112 693.127 236.263 690.563 240.585C688.207 244.571 686.194 248.76 684.547 253.103C682.81 257.599 681.693 262.322 681.23 267.133C680.537 274.03 681.769 280.987 684.781 287.197L684.845 287.342C691.437 300.718 705.387 310.197 721.539 318.601C724.516 320.156 727.577 321.668 730.681 323.166C748.197 331.627 767.07 339.486 781.418 349.932C785.286 352.685 788.896 355.8 792.2 359.237C793.546 360.662 794.817 362.159 796.008 363.722C801.247 370.496 804.162 378.847 804.304 387.486C804.311 387.704 804.311 387.9 804.311 388.096Z" fill="#9B3AC9"/>
<path d="M804.311 388.096C804.311 388.525 804.311 388.954 804.311 389.39C803.835 402.795 796.54 416.127 783.229 425.541C769.108 435.515 750.172 440.763 730.731 444.114C727.691 444.638 724.636 445.11 721.589 445.568C720.034 445.786 718.485 446.005 716.944 446.208C673.665 452.024 629.477 453.136 585.495 454.204C539.489 455.368 493.44 456.516 447.384 457.112L438.249 457.221C368.369 457.992 298.518 457.345 228.894 453.288C207.287 452.038 185.466 450.381 164.043 447.589C160.989 447.206 157.944 446.787 154.909 446.332C126.497 442.166 98.9299 435.776 73.8135 425.403C67.8845 422.981 62.0851 420.239 56.4395 417.189C40.6637 408.618 27.3597 397.779 20.7752 384.476C16.9449 376.677 15.3679 367.921 16.2292 359.237C16.5109 356.08 17.0407 352.951 17.8132 349.881C19.7936 342.285 22.8139 335.014 26.7843 328.283C37.0411 310.532 52.4476 294.619 65.7303 277.95C94.0856 242.424 112.554 197.536 86.3859 161.123C78.878 150.662 68.0246 141.496 61.9089 130.555C58.6372 124.645 56.5961 118.106 55.9139 111.349C55.5819 108.243 55.4561 105.117 55.5374 101.994C55.8276 94.6992 56.7186 87.4428 58.2011 80.3017C62.4629 57.97 70.4254 33.8937 95.0161 19.9655C111.801 10.4571 133.195 7.50571 154.888 8.06546C157.932 8.13815 160.977 8.28354 164.022 8.50162C172.34 9.06137 180.608 10.0936 188.591 11.4094C237.915 19.4712 283.438 36.3144 329.395 51.5221C364.385 63.095 400.624 73.9192 438.228 79.0804C441.268 79.4948 444.308 79.8801 447.362 80.2145C456.177 81.2031 465.07 81.8574 474.034 82.1263C518.648 83.4348 570.699 73.5484 600.326 47.8728C628.944 23.055 682.615 21.0559 721.568 35.8783L722.15 36.1036C725.081 37.2473 727.923 38.4783 730.674 39.7965C759.377 53.6084 778.605 77.2631 781.319 102.015C781.658 105.09 781.739 108.188 781.56 111.277C781.564 111.308 781.564 111.34 781.56 111.371C779.699 141.823 755.378 167.397 730.681 193.014C727.627 196.176 724.565 199.338 721.539 202.523C713.527 210.94 705.764 219.424 699.03 228.154C695.955 232.112 693.127 236.263 690.563 240.585C688.207 244.571 686.194 248.76 684.547 253.103C682.81 257.599 681.693 262.322 681.23 267.133C680.537 274.03 681.769 280.987 684.781 287.197L684.845 287.342C691.437 300.718 705.387 310.197 721.539 318.601C724.516 320.156 727.577 321.668 730.681 323.166C748.197 331.627 767.07 339.486 781.418 349.932C785.286 352.685 788.896 355.8 792.2 359.237C793.546 360.662 794.817 362.159 796.008 363.722C801.247 370.496 804.162 378.847 804.304 387.486C804.311 387.704 804.311 387.9 804.311 388.096Z" fill="url(#paint0_linear)"/>
<path d="M730.709 39.7964V193.007C727.655 196.176 724.594 199.338 721.568 202.522V35.8782L730.709 39.7964Z" fill="#3F3D56"/>
<path d="M781.596 111.276C781.599 111.308 781.599 111.34 781.596 111.371H55.9138C55.5821 108.265 55.4563 105.139 55.5374 102.015H781.354C781.694 105.09 781.774 108.188 781.596 111.276Z" fill="#3F3D56"/>
<path d="M187.441 62.9278C188.912 62.9278 190.104 61.7073 190.104 60.2017C190.104 58.6962 188.912 57.4757 187.441 57.4757C185.97 57.4757 184.777 58.6962 184.777 60.2017C184.777 61.7073 185.97 62.9278 187.441 62.9278Z" fill="#E7EFFD"/>
<path d="M102.133 57.4684C103.604 57.4684 104.797 56.2479 104.797 54.7424C104.797 53.2368 103.604 52.0164 102.133 52.0164C100.662 52.0164 99.4697 53.2368 99.4697 54.7424C99.4697 56.2479 100.662 57.4684 102.133 57.4684Z" fill="#E7EFFD"/>
<path d="M217.53 61.373C218.162 61.373 218.674 60.8489 218.674 60.2023C218.674 59.5557 218.162 59.0315 217.53 59.0315C216.898 59.0315 216.386 59.5557 216.386 60.2023C216.386 60.8489 216.898 61.373 217.53 61.373Z" fill="#E7EFFD"/>
<path d="M131.839 58.6468C132.47 58.6468 132.983 58.1227 132.983 57.4761C132.983 56.8295 132.47 56.3053 131.839 56.3053C131.207 56.3053 130.695 56.8295 130.695 57.4761C130.695 58.1227 131.207 58.6468 131.839 58.6468Z" fill="#E7EFFD"/>
<path d="M130.702 140.391C131.334 140.391 131.846 139.867 131.846 139.221C131.846 138.574 131.334 138.05 130.702 138.05C130.07 138.05 129.558 138.574 129.558 139.221C129.558 139.867 130.07 140.391 130.702 140.391Z" fill="#E7EFFD"/>
<path d="M658.152 78.616C658.784 78.616 659.296 78.0918 659.296 77.4452C659.296 76.7986 658.784 76.2744 658.152 76.2744C657.52 76.2744 657.008 76.7986 657.008 77.4452C657.008 78.0918 657.52 78.616 658.152 78.616Z" fill="#E7EFFD"/>
<path d="M270.845 79.692C271.477 79.692 271.989 79.1678 271.989 78.5212C271.989 77.8746 271.477 77.3505 270.845 77.3505C270.213 77.3505 269.701 77.8746 269.701 78.5212C269.701 79.1678 270.213 79.692 270.845 79.692Z" fill="#E7EFFD"/>
<path d="M601.79 77.3511C602.422 77.3511 602.934 76.8269 602.934 76.1803C602.934 75.5337 602.422 75.0095 601.79 75.0095C601.158 75.0095 600.646 75.5337 600.646 76.1803C600.646 76.8269 601.158 77.3511 601.79 77.3511Z" fill="#E7EFFD"/>
<path d="M745.747 80.8622C746.379 80.8622 746.891 80.338 746.891 79.6914C746.891 79.0448 746.379 78.5206 745.747 78.5206C745.115 78.5206 744.603 79.0448 744.603 79.6914C744.603 80.338 745.115 80.8622 745.747 80.8622Z" fill="#E7EFFD"/>
<path d="M804.311 388.096C804.311 388.525 804.311 388.954 804.311 389.39C803.949 402.897 796.64 416.367 783.229 425.846C769.108 435.82 750.172 441.069 730.731 444.42C727.691 444.943 724.636 445.416 721.589 445.874C720.033 446.092 718.485 446.31 716.944 446.513C706.289 447.967 695.578 449.08 684.831 450.01C670.412 451.26 655.921 452.125 641.417 452.765C622.793 453.601 604.133 454.074 585.495 454.546C549.063 455.462 512.604 456.378 476.108 457.011L463.159 457.229L447.362 457.447L438.228 457.556C380.693 458.181 323.244 457.861 265.894 455.462C262.077 455.307 258.267 455.137 254.465 454.953C245.941 454.57 237.418 454.127 228.894 453.623C211.811 452.634 194.593 451.384 177.56 449.53C173.043 449.046 168.544 448.51 164.065 447.924C161.01 447.541 157.966 447.122 154.93 446.666C151.549 446.182 148.182 445.653 144.83 445.081C119.969 440.923 95.9678 434.904 73.8348 425.73C67.9006 423.296 62.0943 420.546 56.4395 417.494V289.552C59.5932 285.808 62.7256 282.065 65.7373 278.277C69.3599 273.727 72.8404 269.038 76.0367 264.225H144.794V220.863H265.901V316.195H463.159V240.593H690.741C688.429 244.451 686.435 248.499 684.781 252.696V253.103H684.518C682.781 257.6 681.665 262.322 681.201 267.133C680.509 274.03 681.74 280.987 684.753 287.197V287.502L684.817 287.647C691.408 301.023 705.359 310.503 721.511 318.906C724.487 320.462 727.548 321.974 730.652 323.471C747.991 331.846 766.672 339.638 780.963 349.932L781.389 350.237C785.152 352.908 788.673 355.92 791.909 359.237C792.016 359.339 792.108 359.44 792.2 359.542C793.546 360.967 794.817 362.465 796.007 364.027C801.182 370.721 804.094 378.953 804.304 387.486C804.311 387.704 804.311 387.9 804.311 388.096Z" fill="#9B3AC9"/>
<path opacity="0.3" d="M804.311 388.096C804.311 388.525 804.311 388.954 804.311 389.39C803.949 402.897 796.64 416.367 783.229 425.846C769.108 435.82 750.172 441.069 730.731 444.42C727.691 444.943 724.636 445.416 721.589 445.874C720.033 446.092 718.485 446.31 716.944 446.513C706.289 447.967 695.578 449.08 684.831 450.01C670.412 451.26 655.921 452.125 641.417 452.765C622.793 453.601 604.133 454.074 585.495 454.546C549.063 455.462 512.604 456.378 476.108 457.011L463.159 457.229L447.362 457.447L438.228 457.556C380.693 458.181 323.244 457.861 265.894 455.462C262.077 455.307 258.267 455.137 254.465 454.953C245.941 454.57 237.418 454.127 228.894 453.623C211.811 452.634 194.593 451.384 177.56 449.53C173.043 449.046 168.544 448.51 164.065 447.924C161.01 447.541 157.966 447.122 154.93 446.666C151.549 446.182 148.182 445.653 144.83 445.081C119.969 440.923 95.9678 434.904 73.8348 425.73C67.9006 423.296 62.0943 420.546 56.4395 417.494V289.552C59.5932 285.808 62.7256 282.065 65.7373 278.277C69.3599 273.727 72.8404 269.038 76.0367 264.225H144.794V220.863H265.901V316.195H463.159V240.593H690.741C688.429 244.451 686.435 248.499 684.781 252.696V253.103H684.518C682.781 257.6 681.665 262.322 681.201 267.133C680.509 274.03 681.74 280.987 684.753 287.197V287.502L684.817 287.647C691.408 301.023 705.359 310.503 721.511 318.906C724.487 320.462 727.548 321.974 730.652 323.471C747.991 331.846 766.672 339.638 780.963 349.932L781.389 350.237C785.152 352.908 788.673 355.92 791.909 359.237C792.016 359.339 792.108 359.44 792.2 359.542C793.546 360.967 794.817 362.465 796.007 364.027C801.182 370.721 804.094 378.953 804.304 387.486C804.311 387.704 804.311 387.9 804.311 388.096Z" fill="black"/>
<path opacity="0.4" d="M99.3418 281.905H79.0271V295.935H99.3418V281.905Z" fill="black"/>
<path opacity="0.4" d="M131.845 281.905H111.531V295.935H131.845V281.905Z" fill="black"/>
<path opacity="0.4" d="M505.06 253.067H484.745V267.097H505.06V253.067Z" fill="black"/>
<path opacity="0.4" d="M559.829 252.968H539.515V266.998H559.829V252.968Z" fill="black"/>
<path opacity="0.4" d="M618.801 253.067H598.486V267.097H618.801V253.067Z" fill="black"/>
<path opacity="0.4" d="M505.06 295.942H484.745V309.972H505.06V295.942Z" fill="black"/>
<path opacity="0.4" d="M559.903 295.942H539.588V309.972H559.903V295.942Z" fill="black"/>
<path d="M618.801 295.942H598.486V309.972H618.801V295.942Z" fill="#9B3AC9"/>
<path opacity="0.4" d="M505.06 338.81H484.745V352.84H505.06V338.81Z" fill="black"/>
<path opacity="0.4" d="M559.903 338.81H539.588V352.84H559.903V338.81Z" fill="black"/>
<path opacity="0.4" d="M618.801 338.81H598.486V352.84H618.801V338.81Z" fill="black"/>
<path opacity="0.4" d="M505.06 381.685H484.745V395.715H505.06V381.685Z" fill="black"/>
<path opacity="0.4" d="M559.903 381.685H539.588V395.715H559.903V381.685Z" fill="black"/>
<path opacity="0.4" d="M618.801 381.685H598.486V395.715H618.801V381.685Z" fill="black"/>
<path opacity="0.4" d="M505.06 424.56H484.745V438.59H505.06V424.56Z" fill="black"/>
<path opacity="0.4" d="M559.903 424.56H539.588V438.59H559.903V424.56Z" fill="black"/>
<path opacity="0.4" d="M618.801 424.56H598.486V438.59H618.801V424.56Z" fill="black"/>
<path opacity="0.4" d="M684.547 253.103C682.81 257.599 681.693 262.322 681.23 267.133H670.085V253.103H684.547Z" fill="black"/>
<path d="M690.4 295.942H670.085V309.972H690.4V295.942Z" fill="#9B3AC9"/>
<path opacity="0.4" d="M690.4 338.81H670.085V352.84H690.4V338.81Z" fill="black"/>
<path opacity="0.4" d="M690.4 381.685H670.085V395.715H690.4V381.685Z" fill="black"/>
<path opacity="0.4" d="M690.4 424.56H670.085V438.59H690.4V424.56Z" fill="black"/>
<path opacity="0.4" d="M212.074 236.696H191.759V250.726H212.074V236.696Z" fill="black"/>
<path d="M212.074 268.151H191.759V282.181H212.074V268.151Z" fill="#9B3AC9"/>
<path opacity="0.4" d="M212.074 299.598H191.759V313.628H212.074V299.598Z" fill="black"/>
<path opacity="0.4" d="M212.074 331.053H191.759V345.083H212.074V331.053Z" fill="black"/>
<path opacity="0.4" d="M212.074 362.501H191.759V376.531H212.074V362.501Z" fill="black"/>
<path opacity="0.4" d="M212.074 393.955H191.759V407.985H212.074V393.955Z" fill="black"/>
<path opacity="0.4" d="M212.074 425.403H191.759V439.433H212.074V425.403Z" fill="black"/>
<path opacity="0.4" d="M99.3418 318.572H79.0271V332.602H99.3418V318.572Z" fill="black"/>
<path opacity="0.4" d="M131.845 318.572H111.531V332.602H131.845V318.572Z" fill="black"/>
<path opacity="0.4" d="M99.3418 355.239H79.0271V369.269H99.3418V355.239Z" fill="black"/>
<path opacity="0.4" d="M131.845 355.239H111.531V369.269H131.845V355.239Z" fill="black"/>
<path opacity="0.4" d="M99.3418 391.905H79.0271V405.935H99.3418V391.905Z" fill="black"/>
<path opacity="0.4" d="M131.845 391.905H111.531V405.935H131.845V391.905Z" fill="black"/>
<path opacity="0.4" d="M408.075 332.543H306.516V345.083H408.075V332.543Z" fill="black"/>
<path opacity="0.4" d="M408.075 372.554H306.516V385.094H408.075V372.554Z" fill="black"/>
<path opacity="0.4" d="M408.075 412.572H306.516V425.112H408.075V412.572Z" fill="black"/>
<path d="M164.022 8.50172V447.575C160.968 447.192 157.923 446.773 154.888 446.317V8.06555C157.935 8.12371 160.975 8.28363 164.022 8.50172Z" fill="#3F3D56"/>
<path d="M447.362 80.1999V457.127L438.228 457.236V79.0586C441.268 79.4802 444.313 79.8606 447.362 80.1999Z" fill="#3F3D56"/>
<path d="M792.2 359.237H16.2292C16.511 356.08 17.0407 352.951 17.8132 349.881H781.446C785.31 352.648 788.91 355.78 792.2 359.237Z" fill="#3F3D56"/>
<path d="M721.568 318.572C724.544 320.127 727.605 321.639 730.709 323.137V444.115C727.669 444.638 724.615 445.11 721.568 445.568V318.572Z" fill="#3F3D56"/>
<path d="M255.638 175.059H253.89V173.27H253.578V175.059H251.83V175.379H253.578V177.168H253.89V175.379H255.638V175.059Z" fill="#E7EFFD"/>
<path d="M618.802 137.891H617.054V136.102H616.735V137.891H614.994V138.211H616.735V140H617.054V138.211H618.802V137.891Z" fill="#E7EFFD"/>
<path d="M297.028 130.658H295.28V128.869H294.96V130.658H293.219V130.985H294.96V132.766H295.28V130.985H297.028V130.658Z" fill="#E7EFFD"/>
<path d="M294.363 246.125C294.995 246.125 295.507 245.601 295.507 244.954C295.507 244.308 294.995 243.784 294.363 243.784C293.731 243.784 293.219 244.308 293.219 244.954C293.219 245.601 293.731 246.125 294.363 246.125Z" fill="#E7EFFD"/>
<path d="M555.165 141.562C555.797 141.562 556.309 141.038 556.309 140.391C556.309 139.745 555.797 139.22 555.165 139.22C554.534 139.22 554.021 139.745 554.021 140.391C554.021 141.038 554.534 141.562 555.165 141.562Z" fill="#E7EFFD"/>
<path d="M670.085 196.991C670.717 196.991 671.229 196.467 671.229 195.82C671.229 195.174 670.717 194.65 670.085 194.65C669.454 194.65 668.941 195.174 668.941 195.82C668.941 196.467 669.454 196.991 670.085 196.991Z" fill="#E7EFFD"/>
<path d="M490.109 207.03C490.741 207.03 491.253 206.506 491.253 205.86C491.253 205.213 490.741 204.689 490.109 204.689C489.477 204.689 488.965 205.213 488.965 205.86C488.965 206.506 489.477 207.03 490.109 207.03Z" fill="#E7EFFD"/>
<path d="M218.907 382.499C218.178 383.524 217.594 384.65 217.174 385.843C217.068 386.133 216.961 386.468 216.854 386.788C216.663 386.692 216.46 386.621 216.251 386.577C215.365 386.346 214.449 386.265 213.537 386.337C213.537 385.974 213.573 385.61 213.587 385.196C213.701 381.081 213.225 375.36 209.396 377.781C205.724 380.122 208.345 384.004 210.717 386.504C210.923 386.722 211.122 386.919 211.321 387.115C209.19 388.707 208.75 392.363 208.388 396.194C208.025 400.025 204.836 404.191 202.748 406.59C202.542 406.83 202.343 407.048 202.151 407.251C201.302 406.552 200.316 406.046 199.26 405.767C198.204 405.489 197.102 405.445 196.028 405.637L195.744 404.576C194.04 398.273 190.495 387.355 185.978 384.949L186.574 384.178C188.492 381.605 190.651 377.788 187.462 376.814C184.273 375.84 183.982 380.122 184.159 383.357C184.159 383.756 184.216 384.142 184.252 384.498C183.613 384.528 182.987 384.692 182.411 384.978C181.836 385.264 181.324 385.667 180.906 386.163C180.757 385.974 180.593 385.777 180.416 385.566C177.83 382.433 173.078 377.483 171.644 381.205C170.308 384.694 174.485 389.201 177.426 391.862L177.61 392.022C175.636 400.222 184.244 406.895 188.89 409.817C189.096 409.955 189.295 410.079 189.486 410.195C183.094 417.908 179.137 432.374 179.137 432.374L197.08 435.711C197.08 435.711 208.963 425.221 207.443 415.357H207.564C219.433 412.921 222.132 399.967 220.285 392.276L220.491 392.189C222.653 391.282 224.547 389.817 225.989 387.936C229.285 383.226 222.317 377.883 218.907 382.499Z" fill="#9B3AC9"/>
<path opacity="0.1" d="M218.907 382.499C218.178 383.524 217.594 384.65 217.174 385.843C217.068 386.133 216.961 386.468 216.854 386.788C216.663 386.692 216.46 386.621 216.251 386.577C215.365 386.346 214.449 386.265 213.537 386.337C213.537 385.974 213.573 385.61 213.587 385.196C213.701 381.081 213.225 375.36 209.396 377.781C205.724 380.122 208.345 384.004 210.717 386.504C210.923 386.722 211.122 386.919 211.321 387.115C209.19 388.707 208.75 392.363 208.388 396.194C208.025 400.025 204.836 404.191 202.748 406.59C202.542 406.83 202.343 407.048 202.151 407.251C201.302 406.552 200.316 406.046 199.26 405.767C198.204 405.489 197.102 405.445 196.028 405.637L195.744 404.576C194.04 398.273 190.495 387.355 185.978 384.949L186.574 384.178C188.492 381.605 190.651 377.788 187.462 376.814C184.273 375.84 183.982 380.122 184.159 383.357C184.159 383.756 184.216 384.142 184.252 384.498C183.613 384.528 182.987 384.692 182.411 384.978C181.836 385.264 181.324 385.667 180.906 386.163C180.757 385.974 180.593 385.777 180.416 385.566C177.83 382.433 173.078 377.483 171.644 381.205C170.308 384.694 174.485 389.201 177.426 391.862L177.61 392.022C175.636 400.222 184.244 406.895 188.89 409.817C189.096 409.955 189.295 410.079 189.486 410.195C183.094 417.908 179.137 432.374 179.137 432.374L197.08 435.711C197.08 435.711 208.963 425.221 207.443 415.357H207.564C219.433 412.921 222.132 399.967 220.285 392.276L220.491 392.189C222.653 391.282 224.547 389.817 225.989 387.936C229.285 383.226 222.317 377.883 218.907 382.499Z" fill="black"/>
<path d="M183.25 387.805L181.154 394.086C181.154 394.086 179.99 393.243 178.519 391.905C175.579 389.274 171.416 384.738 172.737 381.248C174.158 377.497 178.924 382.448 181.517 385.61C182.554 386.86 183.25 387.805 183.25 387.805Z" fill="#9B3AC9"/>
<path d="M187.668 384.229C187.031 385.084 186.35 385.904 185.629 386.686C185.448 385.593 185.323 384.492 185.253 383.386C185.083 380.173 185.409 375.906 188.556 376.843C191.703 377.781 189.586 381.656 187.668 384.229Z" fill="#9B3AC9"/>
<path d="M214.688 385.218C214.617 387.282 214.425 388.932 214.425 388.932C213.504 388.195 212.63 387.396 211.811 386.541C209.439 384.025 206.839 380.143 210.497 377.817C214.326 375.382 214.795 381.103 214.688 385.218Z" fill="#9B3AC9"/>
<path d="M227.061 387.922C225.619 389.802 223.725 391.268 221.564 392.174C220.964 392.444 220.347 392.672 219.717 392.858L217.252 389.31C217.513 388.138 217.855 386.987 218.275 385.865C218.693 384.67 219.276 383.544 220.008 382.521C223.418 377.883 230.379 383.226 227.061 387.922Z" fill="#9B3AC9"/>
<path opacity="0.1" d="M181.517 385.596C182.554 386.846 183.25 387.777 183.25 387.777L181.155 394.057C181.155 394.057 179.99 393.214 178.52 391.876C178.847 389.866 179.657 387.97 180.878 386.359C181.091 386.097 181.304 385.843 181.517 385.596Z" fill="black"/>
<path opacity="0.1" d="M187.669 384.229C187.031 385.084 186.35 385.904 185.63 386.687C185.448 385.594 185.323 384.492 185.253 383.386C186.125 383.401 186.97 383.696 187.669 384.229Z" fill="black"/>
<path d="M197.967 409.134L192.761 411.482C191.809 410.995 190.882 410.459 189.984 409.875C184.507 406.43 173.497 397.757 180.878 387.529C188.258 377.301 194.416 395.642 196.838 404.612C197.577 407.295 197.967 409.134 197.967 409.134Z" fill="#9B3AC9"/>
<path opacity="0.1" d="M211.811 386.541C212.57 385.739 213.6 385.266 214.689 385.218C214.618 387.283 214.426 388.933 214.426 388.933C213.504 388.196 212.631 387.396 211.811 386.541Z" fill="black"/>
<path opacity="0.1" d="M221.564 392.174C220.964 392.444 220.347 392.672 219.717 392.858L217.252 389.31C217.513 388.138 217.855 386.987 218.275 385.865C219.866 386.817 221.038 389.187 221.564 392.174Z" fill="black"/>
<path d="M208.629 415.342C208.345 415.4 208.047 415.458 207.756 415.502C190.289 418.221 201.995 408.574 201.995 408.574C201.995 408.574 202.784 407.847 203.849 406.626C205.98 404.242 209.127 400.084 209.489 396.231C210.036 390.415 210.668 385 217.352 386.599C223.908 388.169 225.158 411.955 208.629 415.342Z" fill="#9B3AC9"/>
<path d="M208.31 459.845H174.939V468.823H208.31V459.845Z" fill="#D4DFEC"/>
<path d="M213.232 430.659H169.634V461.997H213.232V430.659Z" fill="#D4DFEC"/>
<path opacity="0.1" d="M208.31 459.845H174.939V468.823H208.31V459.845Z" fill="black"/>
<path opacity="0.1" d="M213.232 430.659H169.634V461.997H213.232V430.659Z" fill="black"/>
<path d="M210.497 459.845H177.127V468.823H210.497V459.845Z" fill="#D4DFEC"/>
<path opacity="0.1" d="M196.838 404.612C197.548 407.295 197.967 409.134 197.967 409.134L192.761 411.482C191.809 410.995 190.882 410.459 189.984 409.875C192.022 407.215 194.324 405.23 196.838 404.612Z" fill="black"/>
<path opacity="0.1" d="M208.629 415.342C208.345 415.4 208.047 415.458 207.756 415.502C190.289 418.221 201.995 408.574 201.995 408.574C201.995 408.574 202.784 407.847 203.849 406.626C207.109 409.294 208.445 412.304 208.629 415.342Z" fill="black"/>
<path d="M180.238 432.433C180.238 432.433 190.019 396.609 203.728 407.644C217.437 418.679 198.152 435.711 198.152 435.711L180.238 432.433Z" fill="#9B3AC9"/>
<path opacity="0.1" d="M185.175 394.269C185.78 394.269 186.27 393.768 186.27 393.149C186.27 392.531 185.78 392.029 185.175 392.029C184.571 392.029 184.081 392.531 184.081 393.149C184.081 393.768 184.571 394.269 185.175 394.269Z" fill="black"/>
<path opacity="0.1" d="M185.083 399.503C185.687 399.503 186.177 399.001 186.177 398.383C186.177 397.764 185.687 397.263 185.083 397.263C184.479 397.263 183.989 397.764 183.989 398.383C183.989 399.001 184.479 399.503 185.083 399.503Z" fill="black"/>
<path opacity="0.1" d="M216.89 395.294C217.495 395.294 217.985 394.792 217.985 394.174C217.985 393.555 217.495 393.054 216.89 393.054C216.286 393.054 215.796 393.555 215.796 394.174C215.796 394.792 216.286 395.294 216.89 395.294Z" fill="black"/>
<path opacity="0.1" d="M191.298 422.14C191.902 422.14 192.392 421.638 192.392 421.02C192.392 420.402 191.902 419.9 191.298 419.9C190.694 419.9 190.204 420.402 190.204 421.02C190.204 421.638 190.694 422.14 191.298 422.14Z" fill="black"/>
<path opacity="0.1" d="M214.61 403.995C215.215 403.995 215.705 403.494 215.705 402.876C215.705 402.257 215.215 401.756 214.61 401.756C214.006 401.756 213.516 402.257 213.516 402.876C213.516 403.494 214.006 403.995 214.61 403.995Z" fill="black"/>
<path opacity="0.1" d="M203.274 415.598C203.878 415.598 204.368 415.096 204.368 414.478C204.368 413.859 203.878 413.358 203.274 413.358C202.67 413.358 202.18 413.859 202.18 414.478C202.18 415.096 202.67 415.598 203.274 415.598Z" fill="black"/>
<path opacity="0.1" d="M188.926 396.508C189.53 396.508 190.02 396.006 190.02 395.388C190.02 394.769 189.53 394.268 188.926 394.268C188.321 394.268 187.832 394.769 187.832 395.388C187.832 396.006 188.321 396.508 188.926 396.508Z" fill="black"/>
<path opacity="0.1" d="M213.879 398.66C214.483 398.66 214.973 398.158 214.973 397.54C214.973 396.921 214.483 396.42 213.879 396.42C213.274 396.42 212.784 396.921 212.784 397.54C212.784 398.158 213.274 398.66 213.879 398.66Z" fill="black"/>
<path opacity="0.1" d="M210.128 407.361C210.733 407.361 211.222 406.86 211.222 406.241C211.222 405.623 210.733 405.121 210.128 405.121C209.524 405.121 209.034 405.623 209.034 406.241C209.034 406.86 209.524 407.361 210.128 407.361Z" fill="black"/>
<path opacity="0.1" d="M198.614 421.304C199.219 421.304 199.708 420.802 199.708 420.184C199.708 419.565 199.219 419.064 198.614 419.064C198.01 419.064 197.52 419.565 197.52 420.184C197.52 420.802 198.01 421.304 198.614 421.304Z" fill="black"/>
<path opacity="0.1" d="M196.235 415.779C196.839 415.779 197.329 415.278 197.329 414.659C197.329 414.041 196.839 413.539 196.235 413.539C195.63 413.539 195.14 414.041 195.14 414.659C195.14 415.278 195.63 415.779 196.235 415.779Z" fill="black"/>
<path opacity="0.1" d="M190.566 403.341C191.171 403.341 191.661 402.84 191.661 402.221C191.661 401.603 191.171 401.101 190.566 401.101C189.962 401.101 189.472 401.603 189.472 402.221C189.472 402.84 189.962 403.341 190.566 403.341Z" fill="black"/>
<path opacity="0.1" d="M210.497 459.845H177.127V463.124H210.497V459.845Z" fill="black"/>
<path d="M215.427 430.659H171.828V461.997H215.427V430.659Z" fill="#D4DFEC"/>
<path opacity="0.1" d="M200.078 426.356C200.682 426.356 201.172 425.855 201.172 425.236C201.172 424.618 200.682 424.116 200.078 424.116C199.473 424.116 198.983 424.618 198.983 425.236C198.983 425.855 199.473 426.356 200.078 426.356Z" fill="black"/>
<path opacity="0.1" d="M193.493 427.759C194.097 427.759 194.587 427.257 194.587 426.639C194.587 426.02 194.097 425.519 193.493 425.519C192.889 425.519 192.399 426.02 192.399 426.639C192.399 427.257 192.889 427.759 193.493 427.759Z" fill="black"/>
<path d="M624.886 396.405C627.262 396.52 629.631 396.069 631.807 395.088C633.983 394.106 635.907 392.62 637.426 390.748C638.946 388.876 640.02 386.668 640.563 384.298C641.107 381.929 641.105 379.462 640.558 377.094C640.011 374.725 638.934 372.518 637.412 370.648C635.89 368.778 633.964 367.295 631.787 366.317C629.609 365.338 627.239 364.891 624.864 365.01C622.488 365.128 620.173 365.81 618.099 367.001L620.811 374.609L615.23 369.125C612.237 371.925 610.453 375.827 610.269 379.972C610.199 381.427 610.33 382.884 610.659 384.3C611.422 387.627 613.223 390.608 615.791 392.792C618.358 394.977 621.551 396.245 624.886 396.405Z" fill="#57B894"/>
<path fill-rule="evenodd" clip-rule="evenodd" d="M643.419 344.579C642.394 358.922 641.7 373.278 641.338 387.648C641.229 391.975 641.188 396.373 642.876 400.225C644.048 402.897 645.99 405.148 648.036 407.286C653.129 412.606 658.82 417.289 664.99 421.237C665.519 421.576 666.058 421.918 666.603 422.263C670.338 424.631 674.356 427.179 677.589 430.183C681.3 433.631 684.031 437.724 684.112 442.904C684.168 446.505 682.866 449.758 681.037 452.784C679.6 455.16 677.822 457.421 676.101 459.61C675.635 460.202 675.174 460.789 674.725 461.371C672.616 464.102 670.659 467.329 669.629 470.622C668.6 473.912 668.507 477.235 670.074 480.204L669.449 480.55C667.761 477.351 667.887 473.809 668.952 470.4C670.017 466.995 672.029 463.69 674.167 460.92C674.626 460.326 675.093 459.731 675.563 459.134C677.28 456.95 679.022 454.735 680.433 452.402C682.225 449.438 683.455 446.324 683.402 442.915C683.325 438.02 680.752 434.102 677.112 430.721C673.93 427.766 669.974 425.256 666.233 422.884C665.688 422.538 665.147 422.195 664.614 421.854L664.614 421.854C658.396 417.875 652.661 413.155 647.528 407.795L647.528 407.795C645.475 405.649 643.455 403.321 642.228 400.523C640.464 396.497 640.519 391.933 640.628 387.629C640.99 373.248 641.685 358.88 642.711 344.526L643.419 344.579Z" fill="#3F3D56"/>
<path fill-rule="evenodd" clip-rule="evenodd" d="M631.929 363.804C629.701 362.802 627.277 362.345 624.846 362.466C622.416 362.588 620.047 363.285 617.925 364.504L617.661 364.655L619.953 371.081L620.417 370.263L618.537 364.989C620.357 363.992 622.359 363.391 624.417 363.223L624.846 362.466L624.847 363.194C624.859 363.193 624.87 363.193 624.881 363.192C627.201 363.076 629.517 363.513 631.644 364.469C633.771 365.425 635.652 366.873 637.139 368.7C638.626 370.527 639.678 372.683 640.212 374.997C640.746 377.31 640.748 379.72 640.217 382.034C639.686 384.349 638.637 386.506 637.153 388.335C635.669 390.164 633.789 391.615 631.664 392.575C629.538 393.534 627.223 393.974 624.903 393.862C624.897 393.861 624.891 393.861 624.885 393.861L624.886 394.225L624.869 394.588C627.3 394.706 629.724 394.244 631.95 393.24C634.177 392.235 636.145 390.715 637.699 388.8C639.254 386.884 640.353 384.625 640.909 382.201C641.465 379.776 641.463 377.253 640.903 374.829C640.344 372.406 639.242 370.148 637.685 368.235C636.128 366.322 634.157 364.805 631.929 363.804Z" fill="#3F3D56"/>
<path d="M627.195 346.675C627.314 344.043 628.079 341.485 629.419 339.235C630.758 336.985 632.629 335.116 634.86 333.801L638.297 340.761L638.194 332.336C641.316 331.395 644.65 331.493 647.714 332.617C650.778 333.742 653.414 335.833 655.241 338.59C657.067 341.348 657.991 344.628 657.878 347.957C657.764 351.286 656.62 354.492 654.61 357.113C652.6 359.733 649.828 361.632 646.695 362.535C643.562 363.438 640.23 363.299 637.179 362.138C634.128 360.976 631.517 358.852 629.722 356.073C627.928 353.294 627.043 350.003 627.195 346.675Z" fill="#57B894"/>
<path fill-rule="evenodd" clip-rule="evenodd" d="M638.552 329.702L638.672 339.417L634.714 331.404C632.678 332.676 630.965 334.428 629.722 336.516C628.414 338.714 627.667 341.213 627.55 343.784C627.401 347.035 628.266 350.25 630.019 352.965C631.772 355.68 634.323 357.754 637.303 358.889C640.283 360.024 643.539 360.16 646.599 359.277C649.66 358.395 652.367 356.54 654.331 353.981C656.294 351.421 657.412 348.289 657.523 345.036C657.634 341.784 656.731 338.58 654.947 335.887C653.162 333.193 650.588 331.15 647.594 330.052C644.685 328.985 641.528 328.864 638.552 329.702ZM626.84 343.751C626.685 347.155 627.59 350.522 629.426 353.366C631.262 356.209 633.934 358.382 637.055 359.57C640.177 360.759 643.586 360.901 646.792 359.977C649.997 359.053 652.833 357.11 654.89 354.429C656.946 351.748 658.117 348.468 658.233 345.062C658.349 341.655 657.404 338.3 655.535 335.479C653.666 332.658 650.969 330.518 647.834 329.368C644.699 328.217 641.288 328.117 638.093 329.08L637.835 329.158L637.923 336.289L635.008 330.387L634.683 330.579C632.4 331.924 630.486 333.836 629.115 336.138C627.745 338.44 626.963 341.058 626.84 343.751Z" fill="#3F3D56"/>
<path d="M662.273 422.513C666.039 422.693 669.739 421.448 672.666 419.016C675.594 416.584 677.544 413.134 678.146 409.325C678.748 405.515 677.96 401.612 675.93 398.36C673.901 395.107 670.774 392.732 667.144 391.688L667.223 398.162L663.747 391.12C663.734 391.118 663.72 391.117 663.706 391.117C661.691 391.021 659.678 391.332 657.781 392.032C655.884 392.732 654.141 393.807 652.65 395.197C651.159 396.586 649.95 398.263 649.093 400.13C648.235 401.998 647.745 404.02 647.651 406.082C647.557 408.143 647.86 410.204 648.544 412.145C649.228 414.086 650.279 415.871 651.637 417.397C652.994 418.922 654.633 420.16 656.458 421.037C658.282 421.915 660.258 422.417 662.273 422.513Z" fill="#57B894"/>
<path fill-rule="evenodd" clip-rule="evenodd" d="M663.596 387.846C663.623 387.846 663.651 387.848 663.679 387.852L663.863 387.879L666.731 393.69L666.665 388.299L667.122 388.431C670.836 389.499 674.036 391.929 676.112 395.256C678.188 398.584 678.995 402.577 678.379 406.475C677.763 410.373 675.768 413.902 672.772 416.39C669.777 418.879 665.992 420.152 662.138 419.968C660.078 419.87 658.056 419.357 656.189 418.459C654.322 417.56 652.646 416.295 651.256 414.734C649.867 413.173 648.792 411.347 648.092 409.361C647.393 407.374 647.082 405.266 647.178 403.157C647.275 401.048 647.776 398.979 648.653 397.068C649.531 395.157 650.768 393.442 652.293 392.02C653.818 390.599 655.602 389.498 657.543 388.782C659.481 388.067 661.538 387.749 663.596 387.846ZM663.406 388.566C661.494 388.496 659.585 388.801 657.784 389.466C655.931 390.15 654.228 391.2 652.771 392.558C651.315 393.915 650.134 395.553 649.296 397.377C648.458 399.202 647.98 401.177 647.888 403.191C647.796 405.205 648.092 407.218 648.76 409.114C649.429 411.01 650.455 412.754 651.782 414.244C653.108 415.735 654.708 416.943 656.491 417.801C658.274 418.658 660.204 419.148 662.172 419.242C665.851 419.418 669.465 418.202 672.325 415.826C675.184 413.45 677.09 410.08 677.678 406.359C678.266 402.638 677.495 398.825 675.513 395.648C673.617 392.608 670.738 390.353 667.387 389.27L667.48 396.819L663.406 388.566Z" fill="#3F3D56"/>
<path d="M654.575 452.292C656.186 455.496 658.825 458.036 662.049 459.485C665.272 460.934 668.885 461.205 672.281 460.252C675.677 459.299 678.649 457.18 680.699 454.25C682.749 451.321 683.753 447.759 683.542 444.162C683.331 440.565 681.917 437.151 679.539 434.494C677.161 431.837 673.962 430.097 670.479 429.567C666.996 429.037 663.441 429.749 660.41 431.583C657.379 433.417 655.057 436.262 653.832 439.641L663.422 447.627L652.872 445.124C652.871 447.619 653.455 450.077 654.575 452.292Z" fill="#57B894"/>
<path fill-rule="evenodd" clip-rule="evenodd" d="M660.229 429.09C663.33 427.213 666.968 426.485 670.531 427.027C674.094 427.569 677.367 429.349 679.801 432.068C682.234 434.786 683.68 438.279 683.896 441.959C684.113 445.639 683.086 449.284 680.988 452.281C678.89 455.279 675.849 457.447 672.375 458.422C668.9 459.397 665.204 459.12 661.906 457.637C658.607 456.154 655.908 453.556 654.259 450.278C653.113 448.011 652.515 445.496 652.517 442.944L652.517 442.486L662.008 444.738L653.41 437.578L653.499 437.334C654.752 433.877 657.128 430.966 660.229 429.09ZM654.575 450.111L654.891 449.944C656.465 453.075 659.042 455.556 662.191 456.971C665.341 458.387 668.87 458.652 672.187 457.721C675.504 456.79 678.407 454.72 680.41 451.858C682.413 448.996 683.394 445.517 683.187 442.003C682.981 438.489 681.6 435.154 679.277 432.559C676.954 429.963 673.829 428.264 670.427 427.746C667.024 427.228 663.552 427.924 660.591 429.715C657.703 431.463 655.473 434.15 654.255 437.344L664.835 446.154L653.234 443.403C653.3 445.681 653.865 447.916 654.89 449.944L654.575 450.111Z" fill="#3F3D56"/>
<path d="M537.446 211.542C539.296 219.001 537.887 227.022 534.754 234.017C531.622 241.013 526.863 247.111 521.827 252.825C519.293 255.7 516.551 258.756 516.013 262.588C515.296 267.698 518.663 272.323 520.924 276.937C522.902 280.979 524.101 285.371 524.457 289.876C524.761 293.745 524.288 298.008 521.641 300.787C519.088 303.466 515.168 304.114 511.527 304.46C501.501 305.413 491.4 305.163 481.43 303.716C484.224 299.913 483.175 297.554 482.912 292.804C482.397 283.486 475.77 275.049 474.484 265.809C473.461 258.463 478.212 251.719 482.703 245.894L503.297 219.183C506.709 214.757 510.108 210.199 512.558 205.124C514.309 201.498 514.637 194.69 519.043 193.481C527.343 191.203 535.831 205.037 537.446 211.542Z" fill="#47465A"/>
<path d="M436.387 233.558C436.387 233.558 422.181 276.448 415.078 279.356C407.975 282.264 457.696 334.603 457.696 334.603L493.922 316.43L495.342 281.537L481.136 280.81C481.136 280.81 479.005 266.271 486.108 259.001C493.211 251.732 436.387 233.558 436.387 233.558Z" fill="#FBBEBE"/>
<path opacity="0.1" d="M436.387 233.558C436.387 233.558 422.181 276.448 415.078 279.356C407.975 282.264 457.696 334.603 457.696 334.603L493.922 316.43L495.342 281.537L481.136 280.81C481.136 280.81 479.005 266.271 486.108 259.001C493.211 251.732 436.387 233.558 436.387 233.558Z" fill="black"/>
<path d="M452.724 306.253C452.724 306.253 422.181 285.171 420.76 267.725C420.76 267.725 398.031 282.991 390.927 282.264C383.824 281.537 364.646 285.898 364.646 288.806C364.646 291.714 382.404 373.858 382.404 373.858C382.404 373.858 369.618 408.752 376.011 419.656C382.404 430.56 385.955 481.446 385.955 481.446H533.699C533.699 481.446 513.81 445.826 524.465 420.383C535.119 394.94 539.381 288.079 539.381 288.079C539.381 288.079 531.568 282.264 523.754 283.717C515.941 285.171 506.707 279.356 501.025 278.629C495.342 277.902 482.464 280.878 482.464 280.878L452.724 306.253Z" fill="#9B3AC9"/>
<path d="M601.888 481.446L518.683 470.397L370.729 475.921L424.312 493.077L601.888 481.446Z" fill="#F2F2F2"/>
<path d="M380.984 476.357V485.08L300.009 503.981L292.096 502.113L290.775 501.8L232.53 469.815L380.984 476.357Z" fill="#9493B6"/>
<path opacity="0.1" d="M380.984 476.357V485.08L300.009 503.981L292.096 502.112L290.775 493.076L380.984 476.357Z" fill="black"/>
<path d="M287.934 490.169C289.354 489.442 319.187 483.627 319.187 483.627L265.204 478.538L287.934 490.169Z" fill="#47465A"/>
<path d="M474.743 270.632C500.242 270.632 517.505 235.823 517.505 209.726C517.505 183.63 500.242 176.13 474.743 176.13C449.245 176.13 428.574 197.285 428.574 223.381C428.574 249.477 449.245 270.632 474.743 270.632Z" fill="#FBBEBE"/>
<path d="M340.496 437.102C340.496 437.102 299.298 455.276 289.354 450.187C279.41 445.099 249.577 432.014 240.343 458.91C232.897 480.601 276.367 481.963 293.475 481.678C295.543 481.643 297.58 481.149 299.444 480.231C301.308 479.312 302.954 477.991 304.271 476.357L363.581 455.639C363.581 455.639 350.44 432.741 340.496 437.102Z" fill="#FBBEBE"/>
<path d="M456.986 403.663L461.958 408.025L415.788 474.903C415.788 474.903 408.685 475.63 410.816 471.996L456.986 403.663Z" fill="#47465A"/>
<path d="M459.827 408.024L464.8 401.482L462.669 400.028L457.697 405.843L459.827 408.024Z" fill="#47465A"/>
<path d="M375.656 284.081C375.656 284.081 351.506 288.442 352.216 307.343C352.927 326.243 346.889 347.688 341.207 357.865C335.524 368.043 339.786 376.039 341.207 389.851C342.627 403.663 334.103 418.202 338.365 425.471C342.627 432.74 292.196 437.829 292.196 445.099C292.196 452.368 324.159 466.18 318.477 475.63C314.389 482.429 343.205 470.979 359.696 464.019C363.991 462.247 367.804 459.441 370.812 455.838C373.821 452.236 375.935 447.944 376.977 443.327C377.476 441.009 377.61 438.919 377.077 437.466C374.946 431.65 400.162 424.017 400.872 409.478C401.582 394.939 397.321 380.401 393.769 365.862C390.217 351.323 375.656 284.081 375.656 284.081Z" fill="#9B3AC9"/>
<path d="M23.685 360.163L231.974 362.18C233.414 362.194 234.82 362.628 236.028 363.431C237.235 364.234 238.194 365.372 238.792 366.713L294.926 492.583C295.461 493.784 295.688 495.106 295.585 496.422C295.482 497.739 295.051 499.006 294.335 500.105C293.618 501.203 292.64 502.096 291.491 502.698C290.343 503.301 289.064 503.593 287.774 503.548L78.7539 496.148C77.3621 496.099 76.0105 495.658 74.8477 494.873C73.6849 494.089 72.756 492.992 72.163 491.702L16.7605 371.214C16.2148 370.027 15.9723 368.718 16.0558 367.409C16.1392 366.1 16.546 364.834 17.2379 363.73C17.9298 362.625 18.8843 361.719 20.0118 361.095C21.1394 360.471 22.4032 360.151 23.685 360.163Z" fill="#7A799C"/>
<path d="M515.231 437.102C515.231 437.102 474.033 455.276 464.089 450.187C454.145 445.098 424.312 432.013 415.078 458.91C407.631 480.601 451.102 481.963 468.209 481.677C470.278 481.643 472.314 481.149 474.178 480.231C476.042 479.312 477.689 477.99 479.005 476.357H530.29L537.038 473.243C537.038 473.243 525.175 432.74 515.231 437.102Z" fill="#FBBEBE"/>
<path opacity="0.1" d="M539.736 299.347C539.736 299.347 550.036 285.171 555.008 298.256C559.98 311.341 559.27 362.227 559.27 362.227C559.27 362.227 567.793 387.67 564.952 404.39C562.111 421.109 567.793 423.29 567.793 423.29C567.793 423.29 569.214 430.56 564.952 434.194C560.69 437.829 557.849 453.822 559.27 456.003C560.69 458.183 557.139 471.995 554.298 471.995C551.456 471.995 545.419 470.905 545.419 470.905C545.419 470.905 530.858 443.645 500.314 441.464C500.314 441.464 505.287 434.194 502.445 419.656C499.604 405.117 539.736 299.347 539.736 299.347Z" fill="black"/>
<path d="M537.96 288.806C537.96 288.806 549.68 284.081 554.652 297.166C559.625 310.251 564.242 362.227 564.242 362.227C564.242 362.227 572.765 387.67 569.924 404.39C567.083 421.109 572.765 423.29 572.765 423.29C572.765 423.29 574.186 430.56 569.924 434.194C565.662 437.829 562.821 453.822 564.242 456.003C565.662 458.183 562.111 471.995 559.269 471.995C556.428 471.995 530.147 476.357 530.147 476.357C530.147 476.357 535.829 443.645 505.286 441.464C505.286 441.464 510.259 434.194 507.417 419.656C504.576 405.117 537.96 288.806 537.96 288.806Z" fill="#9B3AC9"/>
<path d="M490.21 156.7C483.127 152.166 475.112 149.378 466.796 148.556C458.48 147.733 450.092 148.899 442.292 151.962C433.929 155.328 426.543 160.809 419.635 166.69C414.093 171.408 408.689 176.555 405.285 183.057C400.123 192.916 400.138 204.652 400.278 215.837C400.399 225.574 400.523 235.342 401.82 244.989C403.598 258.221 407.583 271.322 406.668 284.646C405.753 297.97 398.101 312.185 385.311 314.843C397.209 315.764 409.169 315.411 420.996 313.791C428.449 312.768 436.274 311.021 441.724 305.718C445.704 301.844 447.954 296.504 449.911 291.251C451.878 285.973 453.679 280.487 453.61 274.838C453.466 263.084 445.491 253.224 440.286 242.745C438.825 239.804 437.543 236.642 437.593 233.342C437.644 230.043 439.327 226.58 442.323 225.362C446.02 223.859 450.301 226.101 454.144 225.05C460.319 223.362 461.922 214.586 467.591 211.565C471.786 209.33 477.14 211.006 480.668 214.23C482.245 215.672 483.596 217.415 485.426 218.501C487.906 219.973 490.919 220.045 493.786 220.077C499.14 220.138 517.41 211.55 521.268 207.752C525.032 227.563 553.018 210.321 536.957 181.093C531.365 170.916 523.947 161.464 514.081 155.602C504.214 149.741 491.625 147.923 481.267 152.816" fill="#47465A"/>
<path d="M442.425 246.28C445.955 246.28 448.817 241.072 448.817 234.649C448.817 228.225 445.955 223.018 442.425 223.018C438.894 223.018 436.032 228.225 436.032 234.649C436.032 241.072 438.894 246.28 442.425 246.28Z" fill="#FBBEBE"/>
<path d="M505.286 279.733C505.286 279.733 544.708 285.535 546.839 288.443C548.97 291.35 544.708 308.797 544.708 308.797L516.296 313.886L494.433 309.06L505.286 279.733Z" fill="#9B3AC9"/>
<path opacity="0.1" d="M384.45 308.198C378.513 307.151 372.723 312.65 369.649 319.9C366.574 327.151 365.739 335.839 365.437 344.28C365.137 352.668 365.315 361.235 367.181 369.211C371.014 385.588 381.304 397.167 387.259 412.226C391.833 424.174 393.683 437.033 392.667 449.824" fill="black"/>
<path d="M388.712 308.198C382.775 307.151 376.984 312.65 373.91 319.9C370.836 327.151 370.001 335.839 369.699 344.28C369.399 352.668 369.576 361.235 371.443 369.211C375.275 385.588 385.565 397.167 391.521 412.226C396.095 424.174 397.944 437.033 396.929 449.824" fill="#9B3AC9"/>
<path d="M617.018 470.628L685.731 498.757L728.677 490.846L724.932 459.385L724.382 454.805L652.234 431.95L647.08 437.224L617.018 470.628Z" fill="#9B3AC9"/>
<path opacity="0.1" d="M656.528 437.55V467.991L728.677 490.846L724.932 459.385L656.528 437.55Z" fill="black"/>
<path d="M590.111 477.202L594.974 479.045L652.967 501.025L657.474 502.733C657.616 502.788 657.768 502.807 657.919 502.789C658.069 502.77 658.213 502.716 658.339 502.629L663.65 498.985L718.896 461.052L724.115 457.47C724.265 457.367 724.384 457.222 724.458 457.052C724.531 456.882 724.556 456.694 724.529 456.511C724.503 456.327 724.426 456.155 724.307 456.014C724.189 455.873 724.034 455.77 723.86 455.716L715.538 453.107L657.037 434.766L651.929 433.162C651.792 433.119 651.647 433.107 651.506 433.129C651.364 433.151 651.229 433.205 651.11 433.287L647.086 436.062L594.964 471.985L589.913 475.468C589.766 475.568 589.65 475.708 589.576 475.872C589.502 476.036 589.474 476.218 589.495 476.397C589.515 476.576 589.583 476.746 589.692 476.888C589.801 477.03 589.946 477.138 590.111 477.202Z" fill="#7A799C"/>
<path d="M709.768 460.741L658.002 496.772C657.752 496.946 657.465 497.057 657.165 497.095C656.865 497.133 656.56 497.098 656.276 496.992L601.32 476.459C600.986 476.333 600.692 476.114 600.472 475.828C600.252 475.541 600.114 475.197 600.074 474.835C600.034 474.473 600.092 474.106 600.244 473.776C600.395 473.446 600.633 473.166 600.931 472.966L651.036 439.503C651.271 439.346 651.536 439.244 651.814 439.204C652.091 439.165 652.374 439.188 652.642 439.273L709.259 457.238C709.604 457.349 709.911 457.557 710.146 457.837C710.381 458.118 710.533 458.461 710.586 458.827C710.639 459.192 710.591 459.566 710.446 459.905C710.301 460.243 710.066 460.533 709.768 460.741Z" fill="#F2F2F2"/>
<path d="M715.538 453.107V461.052H718.896L724.115 457.47C724.266 457.366 724.385 457.221 724.458 457.052C724.531 456.882 724.556 456.694 724.529 456.51C724.503 456.327 724.426 456.155 724.307 456.014C724.189 455.873 724.034 455.77 723.861 455.715L715.538 453.107Z" fill="#9B3AC9"/>
<path d="M652.967 498.537V501.025L657.474 502.733C657.616 502.788 657.769 502.807 657.919 502.789C658.069 502.77 658.213 502.716 658.339 502.629L663.65 498.985V498.537H652.967Z" fill="#9B3AC9"/>
<path d="M590.111 477.201L594.974 479.044V471.985H594.964L589.913 475.468C589.766 475.568 589.65 475.708 589.576 475.872C589.502 476.036 589.474 476.217 589.495 476.397C589.515 476.576 589.583 476.746 589.692 476.888C589.801 477.03 589.946 477.138 590.111 477.201Z" fill="#9B3AC9"/>
<path d="M647.086 436.062H657.037V434.766L651.929 433.162C651.792 433.119 651.647 433.107 651.506 433.129C651.364 433.151 651.229 433.205 651.11 433.287L647.086 436.062Z" fill="#9B3AC9"/>
<path d="M625.328 453.822C625.72 453.822 626.039 453.497 626.039 453.095C626.039 452.693 625.72 452.368 625.328 452.368C624.936 452.368 624.617 452.693 624.617 453.095C624.617 453.497 624.936 453.822 625.328 453.822Z" fill="#F2F2F2"/>
</g>
<defs>
<filter id="filter0_d" x="0" y="0" width="820.311" height="576" filterUnits="userSpaceOnUse" color-interpolation-filters="sRGB">
<feFlood flood-opacity="0" result="BackgroundImageFix"/>
<feColorMatrix in="SourceAlpha" type="matrix" values="0 0 0 0 0 0 0 0 0 0 0 0 0 0 0 0 0 0 127 0"/>
<feOffset dy="8"/>
<feGaussianBlur stdDeviation="8"/>
<feColorMatrix type="matrix" values="0 0 0 0 0 0 0 0 0 0 0 0 0 0 0 0 0 0 0.16 0"/>
<feBlend mode="normal" in2="BackgroundImageFix" result="effect1_dropShadow"/>
<feBlend mode="normal" in="SourceGraphic" in2="effect1_dropShadow" result="shape"/>
</filter>
<linearGradient id="paint0_linear" x1="410.171" y1="457.519" x2="410.171" y2="8.00005" gradientUnits="userSpaceOnUse">
<stop offset="0.2" stop-color="#808080" stop-opacity="0.4"/>
<stop offset="0.46" stop-color="#808080" stop-opacity="0.5"/>
<stop offset="1" stop-opacity="0.6"/>
</linearGradient>
</defs>
</svg>
