<svg width="133" height="48" viewBox="0 0 133 48" fill="none" xmlns="http://www.w3.org/2000/svg">
<path d="M61.74 17.364L59.508 30H56.43L57.78 22.422L53.604 30H51.12L49.608 22.386L48.276 30H45.198L47.43 17.364H51.066L53.082 26.112L58.122 17.364H61.74ZM66.5994 19.794L66.1494 22.422H70.2714L69.8574 24.744H65.7354L65.2314 27.57H69.8934L69.4614 30H61.7214L63.9534 17.364H71.6934L71.2614 19.794H66.5994ZM72.8817 30.144C72.4017 30.144 72.0177 30.018 71.7297 29.766C71.4537 29.502 71.3157 29.172 71.3157 28.776C71.3157 28.224 71.5197 27.756 71.9277 27.372C72.3477 26.988 72.8637 26.796 73.4757 26.796C73.9437 26.796 74.3157 26.928 74.5917 27.192C74.8677 27.444 75.0057 27.774 75.0057 28.182C75.0057 28.722 74.7957 29.184 74.3757 29.568C73.9677 29.952 73.4697 30.144 72.8817 30.144ZM87.8438 30H84.7658L81.0038 22.206L79.6178 30H76.5398L78.7718 17.364H81.8498L85.6118 25.194L86.9978 17.364H90.0758L87.8438 30ZM96.087 30.126C95.019 30.126 94.077 29.904 93.261 29.46C92.457 29.016 91.833 28.392 91.389 27.588C90.945 26.784 90.723 25.86 90.723 24.816C90.723 23.34 91.041 22.026 91.677 20.874C92.313 19.71 93.195 18.804 94.323 18.156C95.463 17.508 96.753 17.184 98.193 17.184C99.273 17.184 100.221 17.406 101.037 17.85C101.853 18.282 102.483 18.9 102.927 19.704C103.371 20.496 103.593 21.408 103.593 22.44C103.593 23.916 103.275 25.242 102.639 26.418C102.003 27.582 101.115 28.494 99.975 29.154C98.835 29.802 97.539 30.126 96.087 30.126ZM96.555 27.282C97.347 27.282 98.043 27.078 98.643 26.67C99.243 26.262 99.705 25.716 100.029 25.032C100.365 24.336 100.533 23.586 100.533 22.782C100.533 21.918 100.293 21.24 99.813 20.748C99.333 20.256 98.661 20.01 97.797 20.01C97.005 20.01 96.303 20.214 95.691 20.622C95.091 21.03 94.623 21.576 94.287 22.26C93.963 22.932 93.801 23.676 93.801 24.492C93.801 25.356 94.041 26.04 94.521 26.544C95.001 27.036 95.679 27.282 96.555 27.282ZM115.547 17.364L115.133 19.794H111.767L109.967 30H106.889L108.689 19.794H105.341L105.773 17.364H115.547ZM123.122 27.768H118.406L117.254 30H114.032L120.836 17.364H124.4L126.74 30H123.482L123.122 27.768ZM122.762 25.428L122.024 20.748L119.612 25.428H122.762Z" fill="#3B394D"/>
<path d="M11 13.5C11 16.5376 8.53757 19 5.5 19C2.46243 19 0 16.5376 0 13.5C0 10.4624 2.46243 8 5.5 8C8.53757 8 11 10.4624 11 13.5Z" fill="url(#paint0_radial)"/>
<path d="M38 14.5C38 17.5376 35.5376 20 32.5 20C29.4624 20 27 17.5376 27 14.5C27 11.4624 29.4624 9 32.5 9C35.5376 9 38 11.4624 38 14.5Z" fill="url(#paint1_radial)"/>
<path d="M35 24C35 32.8366 27.8366 40 19 40C10.1634 40 3 32.8366 3 24C3 15.1634 10.1634 8 19 8C27.8366 8 35 15.1634 35 24Z" fill="url(#paint2_radial)"/>
<path d="M14.3331 25.3333C14.3331 22.756 16.4225 20.6666 18.9998 20.6666C21.5771 20.6666 23.6665 22.756 23.6665 25.3333V32.6666C23.6665 34.8758 21.8756 36.6666 19.6665 36.6666H18.3331C16.124 36.6666 14.3331 34.8758 14.3331 32.6666V25.3333Z" fill="#8B1DBF"/>
<defs>
<radialGradient id="paint0_radial" cx="0" cy="0" r="1" gradientUnits="userSpaceOnUse" gradientTransform="translate(8.83334 8) rotate(65.879) scale(36.7049 39.1519)">
<stop stop-color="#C473EB"/>
<stop offset="0.882701" stop-color="#9B3AC9"/>
</radialGradient>
<radialGradient id="paint1_radial" cx="0" cy="0" r="1" gradientUnits="userSpaceOnUse" gradientTransform="translate(8.83334 8) rotate(65.879) scale(36.7049 39.1519)">
<stop stop-color="#C473EB"/>
<stop offset="0.882701" stop-color="#9B3AC9"/>
</radialGradient>
<radialGradient id="paint2_radial" cx="0" cy="0" r="1" gradientUnits="userSpaceOnUse" gradientTransform="translate(8.83334 8) rotate(65.879) scale(36.7049 39.1519)">
<stop stop-color="#C473EB"/>
<stop offset="0.882701" stop-color="#9B3AC9"/>
</radialGradient>
</defs>
</svg>
