<svg width="217" height="74" viewBox="0 0 217 74" fill="none" xmlns="http://www.w3.org/2000/svg">
<path d="M89.4999 8.49999C75.0999 14.5 71.4999 26.3333 71.4999 31.5C71.4999 49.5 98 51.5 92.5 56.5C87 61.5 71.4999 56.5 58.4999 56.5C45.4999 56.5 55.4999 71.5 69.4999 73.5C83.4999 75.5 96.9999 62 124.5 65.5C152 69 154.5 61 158.5 56.5C162.5 52 154 52 144.5 56.5C136.9 60.1 124.333 58 119 56.5C129.5 55 156.5 31.5 141 17.5C125.5 3.49999 107.5 0.999988 89.4999 8.49999Z" fill="#6D2EBF"/>
<path d="M64.4996 16C64.8996 6.39997 58.4996 -1.52585e-05 51.4996 -3.05174e-05C37.7021 -6.05927e-05 29.1996 3.19997 19.9996 16C8.49955 32 -1.49994 58 0.999939 67C4.83425 80.8041 5.99958 61.5 31.9996 47.5C57.9996 33.5 63.9996 28 64.4996 16Z" fill="#6D2EBF"/>
<path d="M153.018 16C152.618 6.39997 159.018 -1.52585e-05 166.018 -3.05174e-05C179.815 -6.05927e-05 188.318 3.19997 197.518 16C209.018 32 219.017 58 216.517 67C212.683 80.8041 211.518 61.5 185.518 47.5C159.518 33.5 153.518 28 153.018 16Z" fill="#6D2EBF"/>
</svg>
