<svg width="1374" height="1279" viewBox="0 0 1374 1279" fill="none" xmlns="http://www.w3.org/2000/svg">
<path d="M304.405 3.81202L265.53 224H196.799L216.081 114.528L162.9 224H103.81L89.1927 113.595L69.9107 224H0.868652L39.7437 3.81202H124.336L149.527 136.298L220.124 3.81202H304.405Z" fill="url(#paint0_radial)"/>
<path d="M394.959 58.548L390.294 85.916H458.714L449.384 137.853H380.964L375.366 168.953H453.116L443.475 224H296.683L335.558 3.81202H482.35L472.709 58.548H394.959Z" fill="url(#paint1_radial)"/>
<path d="M680.664 224H611.622L558.13 113.284L538.537 224H469.495L508.37 3.81202H577.412L630.593 116.394L650.497 3.81202H719.539L680.664 224Z" fill="url(#paint2_radial)"/>
<path d="M819.773 226.177C801.113 226.177 784.734 222.341 770.635 214.67C756.536 206.999 745.651 196.217 737.98 182.326C730.309 168.227 726.473 152.159 726.473 134.121C726.473 107.79 731.864 84.5684 742.645 64.457C753.634 44.1384 768.873 28.381 788.362 17.185C808.059 5.78168 830.658 0.0800171 856.16 0.0800171C875.235 0.0800171 891.821 3.91568 905.92 11.587C920.226 19.051 931.215 29.7287 938.886 43.62C946.557 57.304 950.393 73.165 950.393 91.203C950.393 117.327 944.899 140.652 933.91 161.178C923.129 181.704 907.786 197.669 887.882 209.072C868.185 220.475 845.482 226.177 819.773 226.177ZM830.347 161.8C841.128 161.8 850.458 159.001 858.337 153.403C866.423 147.598 872.539 140.03 876.686 130.7C880.833 121.163 882.906 110.9 882.906 99.911C882.906 88.5077 879.796 79.696 873.576 73.476C867.563 67.0487 858.855 63.835 847.452 63.835C836.671 63.835 827.237 66.634 819.151 72.232C811.065 77.83 804.845 85.3977 800.491 94.935C796.344 104.265 794.271 114.424 794.271 125.413C794.271 136.816 797.277 145.732 803.29 152.159C809.51 158.586 818.529 161.8 830.347 161.8Z" fill="url(#paint3_radial)"/>
<path d="M1168.74 3.81202L1159.1 58.548H1100.63L1071.4 224H1002.36L1031.59 58.548H973.745L983.386 3.81202H1168.74Z" fill="url(#paint4_radial)"/>
<path d="M1295.7 190.723H1222.3L1205.51 224H1133.04L1252.47 3.81202H1332.08L1373.45 224H1300.67L1295.7 190.723ZM1288.23 138.786L1279.21 77.519L1248.42 138.786H1288.23Z" fill="url(#paint5_radial)"/>
<path d="M304.405 266.812L265.53 487H196.799L216.081 377.528L162.9 487H103.81L89.1927 376.595L69.9107 487H0.868652L39.7437 266.812H124.336L149.527 399.298L220.124 266.812H304.405Z" fill="url(#paint6_radial)"/>
<path d="M394.959 321.548L390.294 348.916H458.714L449.384 400.853H380.964L375.366 431.953H453.116L443.475 487H296.683L335.558 266.812H482.35L472.709 321.548H394.959Z" fill="url(#paint7_radial)"/>
<path d="M680.664 487H611.622L558.13 376.284L538.537 487H469.495L508.37 266.812H577.412L630.593 379.394L650.497 266.812H719.539L680.664 487Z" fill="url(#paint8_radial)"/>
<path d="M819.773 489.177C801.113 489.177 784.734 485.341 770.635 477.67C756.536 469.999 745.651 459.217 737.98 445.326C730.309 431.227 726.473 415.159 726.473 397.121C726.473 370.79 731.864 347.568 742.645 327.457C753.634 307.138 768.873 291.381 788.362 280.185C808.059 268.782 830.658 263.08 856.16 263.08C875.235 263.08 891.821 266.916 905.92 274.587C920.226 282.051 931.215 292.729 938.886 306.62C946.557 320.304 950.393 336.165 950.393 354.203C950.393 380.327 944.899 403.652 933.91 424.178C923.129 444.704 907.786 460.669 887.882 472.072C868.185 483.475 845.482 489.177 819.773 489.177ZM830.347 424.8C841.128 424.8 850.458 422.001 858.337 416.403C866.423 410.598 872.539 403.03 876.686 393.7C880.833 384.163 882.906 373.9 882.906 362.911C882.906 351.508 879.796 342.696 873.576 336.476C867.563 330.049 858.855 326.835 847.452 326.835C836.671 326.835 827.237 329.634 819.151 335.232C811.065 340.83 804.845 348.398 800.491 357.935C796.344 367.265 794.271 377.424 794.271 388.413C794.271 399.816 797.277 408.732 803.29 415.159C809.51 421.586 818.529 424.8 830.347 424.8Z" fill="url(#paint9_radial)"/>
<path d="M1168.74 266.812L1159.1 321.548H1100.63L1071.4 487H1002.36L1031.59 321.548H973.745L983.386 266.812H1168.74Z" fill="url(#paint10_radial)"/>
<path d="M1295.7 453.723H1222.3L1205.51 487H1133.04L1252.47 266.812H1332.08L1373.45 487H1300.67L1295.7 453.723ZM1288.23 401.786L1279.21 340.519L1248.42 401.786H1288.23Z" fill="url(#paint11_radial)"/>
<path d="M304.405 529.812L265.53 750H196.799L216.081 640.528L162.9 750H103.81L89.1927 639.595L69.9107 750H0.868652L39.7437 529.812H124.336L149.527 662.298L220.124 529.812H304.405Z" fill="url(#paint12_radial)"/>
<path d="M394.959 584.548L390.294 611.916H458.714L449.384 663.853H380.964L375.366 694.953H453.116L443.475 750H296.683L335.558 529.812H482.35L472.709 584.548H394.959Z" fill="url(#paint13_radial)"/>
<path d="M680.664 750H611.622L558.13 639.284L538.537 750H469.495L508.37 529.812H577.412L630.593 642.394L650.497 529.812H719.539L680.664 750Z" fill="url(#paint14_radial)"/>
<path d="M819.773 752.177C801.113 752.177 784.734 748.341 770.635 740.67C756.536 732.999 745.651 722.217 737.98 708.326C730.309 694.227 726.473 678.159 726.473 660.121C726.473 633.79 731.864 610.568 742.645 590.457C753.634 570.138 768.873 554.381 788.362 543.185C808.059 531.782 830.658 526.08 856.16 526.08C875.235 526.08 891.821 529.916 905.92 537.587C920.226 545.051 931.215 555.729 938.886 569.62C946.557 583.304 950.393 599.165 950.393 617.203C950.393 643.327 944.899 666.652 933.91 687.178C923.129 707.704 907.786 723.669 887.882 735.072C868.185 746.475 845.482 752.177 819.773 752.177ZM830.347 687.8C841.128 687.8 850.458 685.001 858.337 679.403C866.423 673.598 872.539 666.03 876.686 656.7C880.833 647.163 882.906 636.9 882.906 625.911C882.906 614.508 879.796 605.696 873.576 599.476C867.563 593.049 858.855 589.835 847.452 589.835C836.671 589.835 827.237 592.634 819.151 598.232C811.065 603.83 804.845 611.398 800.491 620.935C796.344 630.265 794.271 640.424 794.271 651.413C794.271 662.816 797.277 671.732 803.29 678.159C809.51 684.586 818.529 687.8 830.347 687.8Z" fill="url(#paint15_radial)"/>
<path d="M1168.74 529.812L1159.1 584.548H1100.63L1071.4 750H1002.36L1031.59 584.548H973.745L983.386 529.812H1168.74Z" fill="url(#paint16_radial)"/>
<path d="M1295.7 716.723H1222.3L1205.51 750H1133.04L1252.47 529.812H1332.08L1373.45 750H1300.67L1295.7 716.723ZM1288.23 664.786L1279.21 603.519L1248.42 664.786H1288.23Z" fill="url(#paint17_radial)"/>
<path d="M304.405 792.812L265.53 1013H196.799L216.081 903.528L162.9 1013H103.81L89.1927 902.595L69.9107 1013H0.868652L39.7437 792.812H124.336L149.527 925.298L220.124 792.812H304.405Z" fill="url(#paint18_radial)"/>
<path d="M394.959 847.548L390.294 874.916H458.714L449.384 926.853H380.964L375.366 957.953H453.116L443.475 1013H296.683L335.558 792.812H482.35L472.709 847.548H394.959Z" fill="url(#paint19_radial)"/>
<path d="M680.664 1013H611.622L558.13 902.284L538.537 1013H469.495L508.37 792.812H577.412L630.593 905.394L650.497 792.812H719.539L680.664 1013Z" fill="url(#paint20_radial)"/>
<path d="M819.773 1015.18C801.113 1015.18 784.734 1011.34 770.635 1003.67C756.536 995.999 745.651 985.217 737.98 971.326C730.309 957.227 726.473 941.159 726.473 923.121C726.473 896.79 731.864 873.568 742.645 853.457C753.634 833.138 768.873 817.381 788.362 806.185C808.059 794.782 830.658 789.08 856.16 789.08C875.235 789.08 891.821 792.916 905.92 800.587C920.226 808.051 931.215 818.729 938.886 832.62C946.557 846.304 950.393 862.165 950.393 880.203C950.393 906.327 944.899 929.652 933.91 950.178C923.129 970.704 907.786 986.669 887.882 998.072C868.185 1009.48 845.482 1015.18 819.773 1015.18ZM830.347 950.8C841.128 950.8 850.458 948.001 858.337 942.403C866.423 936.598 872.539 929.03 876.686 919.7C880.833 910.163 882.906 899.9 882.906 888.911C882.906 877.508 879.796 868.696 873.576 862.476C867.563 856.049 858.855 852.835 847.452 852.835C836.671 852.835 827.237 855.634 819.151 861.232C811.065 866.83 804.845 874.398 800.491 883.935C796.344 893.265 794.271 903.424 794.271 914.413C794.271 925.816 797.277 934.732 803.29 941.159C809.51 947.586 818.529 950.8 830.347 950.8Z" fill="url(#paint21_radial)"/>
<path d="M1168.74 792.812L1159.1 847.548H1100.63L1071.4 1013H1002.36L1031.59 847.548H973.745L983.386 792.812H1168.74Z" fill="url(#paint22_radial)"/>
<path d="M1295.7 979.723H1222.3L1205.51 1013H1133.04L1252.47 792.812H1332.08L1373.45 1013H1300.67L1295.7 979.723ZM1288.23 927.786L1279.21 866.519L1248.42 927.786H1288.23Z" fill="url(#paint23_radial)"/>
<path d="M304.405 1055.81L265.53 1276H196.799L216.081 1166.53L162.9 1276H103.81L89.1927 1165.6L69.9107 1276H0.868652L39.7437 1055.81H124.336L149.527 1188.3L220.124 1055.81H304.405Z" fill="url(#paint24_radial)"/>
<path d="M394.959 1110.55L390.294 1137.92H458.714L449.384 1189.85H380.964L375.366 1220.95H453.116L443.475 1276H296.683L335.558 1055.81H482.35L472.709 1110.55H394.959Z" fill="url(#paint25_radial)"/>
<path d="M680.664 1276H611.622L558.13 1165.28L538.537 1276H469.495L508.37 1055.81H577.412L630.593 1168.39L650.497 1055.81H719.539L680.664 1276Z" fill="url(#paint26_radial)"/>
<path d="M819.773 1278.18C801.113 1278.18 784.734 1274.34 770.635 1266.67C756.536 1259 745.651 1248.22 737.98 1234.33C730.309 1220.23 726.473 1204.16 726.473 1186.12C726.473 1159.79 731.864 1136.57 742.645 1116.46C753.634 1096.14 768.873 1080.38 788.362 1069.18C808.059 1057.78 830.658 1052.08 856.16 1052.08C875.235 1052.08 891.821 1055.92 905.92 1063.59C920.226 1071.05 931.215 1081.73 938.886 1095.62C946.557 1109.3 950.393 1125.17 950.393 1143.2C950.393 1169.33 944.899 1192.65 933.91 1213.18C923.129 1233.7 907.786 1249.67 887.882 1261.07C868.185 1272.48 845.482 1278.18 819.773 1278.18ZM830.347 1213.8C841.128 1213.8 850.458 1211 858.337 1205.4C866.423 1199.6 872.539 1192.03 876.686 1182.7C880.833 1173.16 882.906 1162.9 882.906 1151.91C882.906 1140.51 879.796 1131.7 873.576 1125.48C867.563 1119.05 858.855 1115.84 847.452 1115.84C836.671 1115.84 827.237 1118.63 819.151 1124.23C811.065 1129.83 804.845 1137.4 800.491 1146.93C796.344 1156.27 794.271 1166.42 794.271 1177.41C794.271 1188.82 797.277 1197.73 803.29 1204.16C809.51 1210.59 818.529 1213.8 830.347 1213.8Z" fill="url(#paint27_radial)"/>
<path d="M1168.74 1055.81L1159.1 1110.55H1100.63L1071.4 1276H1002.36L1031.59 1110.55H973.745L983.386 1055.81H1168.74Z" fill="url(#paint28_radial)"/>
<path d="M1295.7 1242.72H1222.3L1205.51 1276H1133.04L1252.47 1055.81H1332.08L1373.45 1276H1300.67L1295.7 1242.72ZM1288.23 1190.79L1279.21 1129.52L1248.42 1190.79H1288.23Z" fill="url(#paint29_radial)"/>
<defs>
<radialGradient id="paint0_radial" cx="0" cy="0" r="1" gradientUnits="userSpaceOnUse" gradientTransform="translate(1145 1041.5) rotate(-125.161) scale(1042.76 1517.23)">
<stop stop-color="#FBF2FF"/>
<stop offset="0.85118" stop-color="#FEFCFF"/>
</radialGradient>
<radialGradient id="paint1_radial" cx="0" cy="0" r="1" gradientUnits="userSpaceOnUse" gradientTransform="translate(1145 1041.5) rotate(-125.161) scale(1042.76 1517.23)">
<stop stop-color="#FBF2FF"/>
<stop offset="0.85118" stop-color="#FEFCFF"/>
</radialGradient>
<radialGradient id="paint2_radial" cx="0" cy="0" r="1" gradientUnits="userSpaceOnUse" gradientTransform="translate(1145 1041.5) rotate(-125.161) scale(1042.76 1517.23)">
<stop stop-color="#FBF2FF"/>
<stop offset="0.85118" stop-color="#FEFCFF"/>
</radialGradient>
<radialGradient id="paint3_radial" cx="0" cy="0" r="1" gradientUnits="userSpaceOnUse" gradientTransform="translate(1145 1041.5) rotate(-125.161) scale(1042.76 1517.23)">
<stop stop-color="#FBF2FF"/>
<stop offset="0.85118" stop-color="#FEFCFF"/>
</radialGradient>
<radialGradient id="paint4_radial" cx="0" cy="0" r="1" gradientUnits="userSpaceOnUse" gradientTransform="translate(1145 1041.5) rotate(-125.161) scale(1042.76 1517.23)">
<stop stop-color="#FBF2FF"/>
<stop offset="0.85118" stop-color="#FEFCFF"/>
</radialGradient>
<radialGradient id="paint5_radial" cx="0" cy="0" r="1" gradientUnits="userSpaceOnUse" gradientTransform="translate(1145 1041.5) rotate(-125.161) scale(1042.76 1517.23)">
<stop stop-color="#FBF2FF"/>
<stop offset="0.85118" stop-color="#FEFCFF"/>
</radialGradient>
<radialGradient id="paint6_radial" cx="0" cy="0" r="1" gradientUnits="userSpaceOnUse" gradientTransform="translate(1145 1041.5) rotate(-125.161) scale(1042.76 1517.23)">
<stop stop-color="#FBF2FF"/>
<stop offset="0.85118" stop-color="#FEFCFF"/>
</radialGradient>
<radialGradient id="paint7_radial" cx="0" cy="0" r="1" gradientUnits="userSpaceOnUse" gradientTransform="translate(1145 1041.5) rotate(-125.161) scale(1042.76 1517.23)">
<stop stop-color="#FBF2FF"/>
<stop offset="0.85118" stop-color="#FEFCFF"/>
</radialGradient>
<radialGradient id="paint8_radial" cx="0" cy="0" r="1" gradientUnits="userSpaceOnUse" gradientTransform="translate(1145 1041.5) rotate(-125.161) scale(1042.76 1517.23)">
<stop stop-color="#FBF2FF"/>
<stop offset="0.85118" stop-color="#FEFCFF"/>
</radialGradient>
<radialGradient id="paint9_radial" cx="0" cy="0" r="1" gradientUnits="userSpaceOnUse" gradientTransform="translate(1145 1041.5) rotate(-125.161) scale(1042.76 1517.23)">
<stop stop-color="#FBF2FF"/>
<stop offset="0.85118" stop-color="#FEFCFF"/>
</radialGradient>
<radialGradient id="paint10_radial" cx="0" cy="0" r="1" gradientUnits="userSpaceOnUse" gradientTransform="translate(1145 1041.5) rotate(-125.161) scale(1042.76 1517.23)">
<stop stop-color="#FBF2FF"/>
<stop offset="0.85118" stop-color="#FEFCFF"/>
</radialGradient>
<radialGradient id="paint11_radial" cx="0" cy="0" r="1" gradientUnits="userSpaceOnUse" gradientTransform="translate(1145 1041.5) rotate(-125.161) scale(1042.76 1517.23)">
<stop stop-color="#FBF2FF"/>
<stop offset="0.85118" stop-color="#FEFCFF"/>
</radialGradient>
<radialGradient id="paint12_radial" cx="0" cy="0" r="1" gradientUnits="userSpaceOnUse" gradientTransform="translate(1145 1041.5) rotate(-125.161) scale(1042.76 1517.23)">
<stop stop-color="#FBF2FF"/>
<stop offset="0.85118" stop-color="#FEFCFF"/>
</radialGradient>
<radialGradient id="paint13_radial" cx="0" cy="0" r="1" gradientUnits="userSpaceOnUse" gradientTransform="translate(1145 1041.5) rotate(-125.161) scale(1042.76 1517.23)">
<stop stop-color="#FBF2FF"/>
<stop offset="0.85118" stop-color="#FEFCFF"/>
</radialGradient>
<radialGradient id="paint14_radial" cx="0" cy="0" r="1" gradientUnits="userSpaceOnUse" gradientTransform="translate(1145 1041.5) rotate(-125.161) scale(1042.76 1517.23)">
<stop stop-color="#FBF2FF"/>
<stop offset="0.85118" stop-color="#FEFCFF"/>
</radialGradient>
<radialGradient id="paint15_radial" cx="0" cy="0" r="1" gradientUnits="userSpaceOnUse" gradientTransform="translate(1145 1041.5) rotate(-125.161) scale(1042.76 1517.23)">
<stop stop-color="#FBF2FF"/>
<stop offset="0.85118" stop-color="#FEFCFF"/>
</radialGradient>
<radialGradient id="paint16_radial" cx="0" cy="0" r="1" gradientUnits="userSpaceOnUse" gradientTransform="translate(1145 1041.5) rotate(-125.161) scale(1042.76 1517.23)">
<stop stop-color="#FBF2FF"/>
<stop offset="0.85118" stop-color="#FEFCFF"/>
</radialGradient>
<radialGradient id="paint17_radial" cx="0" cy="0" r="1" gradientUnits="userSpaceOnUse" gradientTransform="translate(1145 1041.5) rotate(-125.161) scale(1042.76 1517.23)">
<stop stop-color="#FBF2FF"/>
<stop offset="0.85118" stop-color="#FEFCFF"/>
</radialGradient>
<radialGradient id="paint18_radial" cx="0" cy="0" r="1" gradientUnits="userSpaceOnUse" gradientTransform="translate(1145 1041.5) rotate(-125.161) scale(1042.76 1517.23)">
<stop stop-color="#FBF2FF"/>
<stop offset="0.85118" stop-color="#FEFCFF"/>
</radialGradient>
<radialGradient id="paint19_radial" cx="0" cy="0" r="1" gradientUnits="userSpaceOnUse" gradientTransform="translate(1145 1041.5) rotate(-125.161) scale(1042.76 1517.23)">
<stop stop-color="#FBF2FF"/>
<stop offset="0.85118" stop-color="#FEFCFF"/>
</radialGradient>
<radialGradient id="paint20_radial" cx="0" cy="0" r="1" gradientUnits="userSpaceOnUse" gradientTransform="translate(1145 1041.5) rotate(-125.161) scale(1042.76 1517.23)">
<stop stop-color="#FBF2FF"/>
<stop offset="0.85118" stop-color="#FEFCFF"/>
</radialGradient>
<radialGradient id="paint21_radial" cx="0" cy="0" r="1" gradientUnits="userSpaceOnUse" gradientTransform="translate(1145 1041.5) rotate(-125.161) scale(1042.76 1517.23)">
<stop stop-color="#FBF2FF"/>
<stop offset="0.85118" stop-color="#FEFCFF"/>
</radialGradient>
<radialGradient id="paint22_radial" cx="0" cy="0" r="1" gradientUnits="userSpaceOnUse" gradientTransform="translate(1145 1041.5) rotate(-125.161) scale(1042.76 1517.23)">
<stop stop-color="#FBF2FF"/>
<stop offset="0.85118" stop-color="#FEFCFF"/>
</radialGradient>
<radialGradient id="paint23_radial" cx="0" cy="0" r="1" gradientUnits="userSpaceOnUse" gradientTransform="translate(1145 1041.5) rotate(-125.161) scale(1042.76 1517.23)">
<stop stop-color="#FBF2FF"/>
<stop offset="0.85118" stop-color="#FEFCFF"/>
</radialGradient>
<radialGradient id="paint24_radial" cx="0" cy="0" r="1" gradientUnits="userSpaceOnUse" gradientTransform="translate(1145 1041.5) rotate(-125.161) scale(1042.76 1517.23)">
<stop stop-color="#FBF2FF"/>
<stop offset="0.85118" stop-color="#FEFCFF"/>
</radialGradient>
<radialGradient id="paint25_radial" cx="0" cy="0" r="1" gradientUnits="userSpaceOnUse" gradientTransform="translate(1145 1041.5) rotate(-125.161) scale(1042.76 1517.23)">
<stop stop-color="#FBF2FF"/>
<stop offset="0.85118" stop-color="#FEFCFF"/>
</radialGradient>
<radialGradient id="paint26_radial" cx="0" cy="0" r="1" gradientUnits="userSpaceOnUse" gradientTransform="translate(1145 1041.5) rotate(-125.161) scale(1042.76 1517.23)">
<stop stop-color="#FBF2FF"/>
<stop offset="0.85118" stop-color="#FEFCFF"/>
</radialGradient>
<radialGradient id="paint27_radial" cx="0" cy="0" r="1" gradientUnits="userSpaceOnUse" gradientTransform="translate(1145 1041.5) rotate(-125.161) scale(1042.76 1517.23)">
<stop stop-color="#FBF2FF"/>
<stop offset="0.85118" stop-color="#FEFCFF"/>
</radialGradient>
<radialGradient id="paint28_radial" cx="0" cy="0" r="1" gradientUnits="userSpaceOnUse" gradientTransform="translate(1145 1041.5) rotate(-125.161) scale(1042.76 1517.23)">
<stop stop-color="#FBF2FF"/>
<stop offset="0.85118" stop-color="#FEFCFF"/>
</radialGradient>
<radialGradient id="paint29_radial" cx="0" cy="0" r="1" gradientUnits="userSpaceOnUse" gradientTransform="translate(1145 1041.5) rotate(-125.161) scale(1042.76 1517.23)">
<stop stop-color="#FBF2FF"/>
<stop offset="0.85118" stop-color="#FEFCFF"/>
</radialGradient>
</defs>
</svg>
